<?xml version="1.0" encoding="utf-8"?>
<!-- Generator: Adobe Illustrator 28.0.0, SVG Export Plug-In . SVG Version: 6.00 Build 0)  -->
<svg version="1.1" id="Laag_1" xmlns="http://www.w3.org/2000/svg" xmlns:xlink="http://www.w3.org/1999/xlink" x="0px" y="0px"
	 viewBox="0 0 595.3 841.9" style="enable-background:new 0 0 595.3 841.9;" xml:space="preserve">
<style type="text/css">
	.st0{fill:#141025;}
	.st1{fill:#7F2A57;}
	.st2{fill:#474984;}
	.st3{fill:#FFFFFF;}
	.st4{font-family:'Bauhaus93';}
	.st5{font-size:25.361px;}
	.st6{fill:none;stroke:#362515;stroke-miterlimit:10;}
	.st7{fill:none;stroke:#D69AA8;stroke-miterlimit:10;}
	.st8{fill:none;stroke:#EAB7BB;stroke-miterlimit:10;}
	.st9{fill:#E6BEBE;}
	.st10{fill:#FFFFFF;stroke:#010202;stroke-width:2;stroke-miterlimit:10;}
	.st11{font-size:25.3611px;}
	.st12{font-size:25.3612px;}
	.st13{fill:#9E6645;}
	.st14{fill:#1B1814;}
	.st15{fill:#23180E;}
	.st16{fill:#D3D3C5;stroke:#23180E;stroke-miterlimit:10;}
	.st17{fill:#1C130D;}
	.st18{fill:#7E5940;}
	.st19{fill:none;stroke:#402413;stroke-width:3;stroke-miterlimit:10;}
	.st20{fill:#D69AA8;}
	.st21{fill:none;stroke:#B76A82;stroke-miterlimit:10;}
	.st22{fill:#E5E5DF;stroke:#EAB7BB;stroke-miterlimit:10;}
	.st23{fill:#74788C;}
	.st24{fill:#664F52;}
	.st25{fill:#33262D;}
	.st26{opacity:0.17;fill:#6B5A5B;}
	.st27{font-family:'Roboto-Regular';}
	.st28{font-size:12px;}
	.st29{fill:none;stroke:#684232;stroke-miterlimit:10;}
	.st30{fill:none;stroke:#C49191;stroke-linecap:round;stroke-linejoin:round;stroke-miterlimit:10;}
	.st31{fill:none;stroke:#010202;stroke-width:3;stroke-miterlimit:10;}
</style>
<rect x="0" y="0" class="st0" width="595.3" height="841.9"/>
<path class="st1" d="M29,841.9l1.4-37H62l2.4-45.8l28-39.6l-2.3,48.6l35,0.6l-1.8,64.3l25.5,0.2v-27.9c0,0,19.6-0.2,19-0.2
	c-0.6,0-0.8-18,0-18.2c0.8-0.2,22.1-0.2,22.1-0.2v-29.5l28.1-0.8V779l6.5,3.8l-1.8,35.8l11.7,8.7v-50.8l22.9,0.8l1.2,35.6
	c0,0,8.5-5.3,9.1-5.9c0.6-0.6,0-47.5,0-47.5l26.1-0.2v27.7c0,0,18.6,2.8,19,1s0-19.6,0-19.6l28,1.8v33.8h36.1V688.6l28.9,1.4
	l1.8,78.7l30.9,0.4v62.7l24.3,0.2v-27.1h19.8l-1-17.4l23.5-1.2v-28.1l26.9,0.6v20.4l7.9,5.1V818h6.3v-69.6l25.1,0.4v87h3.4v-26.1
	l6.9,0.8v-52.8l13.1,0.6l0.6,83.6L29,841.9z"/>
<path class="st2" d="M577.6,0l-1.4,37h-32.3l-2.5,45.8l-28.6,39.6l2.4-48.6l-35.7-0.6l1.8-64.3l-26-0.2v27.9c0,0-20,0.2-19.4,0.2
	c0.6,0,0.8,18,0,18.2c-0.8,0.2-22.6,0.2-22.6,0.2v29.5l-28.6,0.8V62.9l-6.7-3.8l1.8-35.8L368,14.6v50.8l-23.4-0.8l-1.2-35.6
	c0,0-8.7,5.3-9.3,5.9c-0.6,0.6,0,47.5,0,47.5l-26.6,0.2V55c0,0-19-2.8-19.4-1s0,19.6,0,19.6l-28.6-1.8V38h-36.8v115.3l-29.5-1.4
	l-1.8-78.7L160,72.8V10.1l-24.8-0.2V37H115l1,17.4l-24,1.2v28.1l-27.4-0.6V62.7l-8.1-5.1V23.9H50l0,69.6l-25.6-0.4v-87H21v26.1
	l-7.1-0.8v52.8L0.6,83.6L0,0L577.6,0z"/>
<g>
	<path class="st3" d="M98.9,517.5H46.9v35.2H22.8V452.6h24.1v35.2h51.9V517.5z"/>
	<path class="st3" d="M22.8,442.7v-89h19.5V413H52v-59.4h17.6V413h9.7v-59.4h19.5v89H22.8z"/>
	<path class="st3" d="M22.7,263.8v-29.7h76v33.4l-46.5,40.9h46.5v29.6h-76v-40.8L63,263.8H22.7z"/>
	<path class="st3" d="M22.8,216.8v-89h19.5v59.4H52v-59.4h17.6v59.4h9.7v-59.4h19.5v89H22.8z"/>
	<path class="st3" d="M98.9,83.3H46.9v35.2H22.8V18.4h24.1v35.2h51.9V83.3z"/>
</g>
<g>
	<path class="st3" d="M375.3,668.4h6l6.9,12.9h-5.7l-1-2.2H375l-1,2.2h-5.7L375.3,668.4z M376.5,676h3.6l-1.8-3.8L376.5,676z"/>
	<path class="st3" d="M398.2,668.4h6.3l5,6.5l5.1-6.5h6.3v12.9h-5v-6.9l-5.1,6.9h-2.5l-5.1-6.9v6.9h-5V668.4z"/>
	<path class="st3" d="M440.4,674.4v0.9c0,4.9-4,6.3-8.8,6.3c-4.9,0-8.9-1.4-8.8-6.3v-0.9c0-4.9,4-6.3,8.8-6.3
		C436.4,668,440.4,669.5,440.4,674.4z M435.3,674.7c0-2.1-1.7-2.5-3.8-2.5c-2.1,0-3.8,0.4-3.8,2.5v0.3c0,2.1,1.7,2.5,3.8,2.5
		c2.1,0,3.8-0.4,3.8-2.5V674.7z"/>
	<path class="st3" d="M449.1,677.4l3.9-9h5.7l-6.6,12.9h-6l-6.6-12.9h5.7L449.1,677.4z"/>
	<path class="st3" d="M464.1,668.4v12.9h-5v-12.9H464.1z"/>
	<path class="st3" d="M466.8,668.4h15.1v3.3h-10.1v1.7h10.1v3h-10.1v1.7h10.1v3.3h-15.1V668.4z"/>
	<path class="st3" d="M491.9,668.4h15.8v4.1H497v1.6h9.5v3.8H497v3.5h-5V668.4z"/>
	<path class="st3" d="M521.6,668.4c2.7,0,4.9,2.2,4.9,4.9c0,1-0.3,1.9-0.8,2.6c-0.5,0.8-1.2,1.4-2,1.8l2.8,3.6h-5.4l-2.4-3.2h-4.5
		v3.2h-5v-12.9H521.6z M514.2,672.2v2.2h6.2c0.3,0,0.6-0.1,0.8-0.3c0.2-0.2,0.3-0.5,0.3-0.8c0-0.6-0.5-1.1-1.1-1.1H514.2z"/>
	<path class="st3" d="M545.4,674.4v0.9c0,4.9-4,6.3-8.8,6.3c-4.9,0-8.9-1.4-8.8-6.3v-0.9c0-4.9,4-6.3,8.8-6.3
		C541.4,668,545.4,669.5,545.4,674.4z M540.3,674.7c0-2.1-1.7-2.5-3.8-2.5c-2.1,0-3.8,0.4-3.8,2.5v0.3c0,2.1,1.7,2.5,3.8,2.5
		c2.1,0,3.8-0.4,3.8-2.5V674.7z"/>
	<path class="st3" d="M546.9,668.4h6.3l5,6.5l5.1-6.5h6.3v12.9h-5v-6.9l-5.1,6.9H557l-5.1-6.9v6.9h-5V668.4z"/>
</g>
<g>
	<path class="st3" d="M489.7,735h6.3v16.2h-7.1l-8.7-9.9v9.9h-6.3V735h8.7l7.1,8.6V735z"/>
	<path class="st3" d="M520.4,742.5v1.2c0,6.1-5,7.9-11,7.9c-6.1,0-11.1-1.8-11.1-7.9v-1.2c0-6.1,5-7.9,11.1-7.9
		C515.4,734.6,520.4,736.4,520.4,742.5z M514,742.9c0-2.6-2.2-3.1-4.7-3.2c-2.6,0-4.8,0.5-4.7,3.2v0.4c0,2.6,2.2,3.1,4.7,3.2
		c2.6,0,4.8-0.5,4.7-3.2V742.9z"/>
	<path class="st3" d="M528.5,735V746h12.6v5.1h-18.9V735H528.5z"/>
	<path class="st3" d="M550.3,735h7.5l8.7,16.2h-7.1l-1.3-2.8H550l-1.3,2.8h-7.1L550.3,735z M551.8,744.5h4.4l-2.2-4.8L551.8,744.5z"
		/>
	<path class="st3" d="M582.8,735h6.3v16.2H582l-8.7-9.9v9.9H567V735h8.7l7.1,8.6V735z"/>
</g>
<text transform="matrix(-0.5773 0.8165 -0.8165 -0.5773 325.78 438.7553)" class="st4 st5">10</text>
<path class="st6" d="M251.6,488.7c0,0-26.2-18-10.7-35.2s32.1,4.9,32.1,4.9L251.6,488.7z"/>
<path class="st7" d="M356.4,397c0,0-17.9-23.8-21-24.3l-9.5,13.7C325.9,386.4,339.3,400.1,356.4,397z"/>
<path class="st8" d="M397.9,318.1c0,0,6.4-1.5,13.8-0.5c0.4,0.1,0.8,0.1,1.2,0.2c9.1,1.5,19.1,7,20.6,23.5
	C433.4,341.3,402.9,325.7,397.9,318.1z"/>
<path class="st9" d="M445.8,359.5"/>
<g>
	<path class="st10" d="M313.6,404.3L121,676.7c24.9,13.5,53.7,21.2,84.3,21.2c95,0,172-74,172-165.2
		C377.2,480.9,352.4,434.6,313.6,404.3z"/>
</g>
<g>
	<path class="st10" d="M405.4,148.7c-92.1,0-166.7,75.1-166.7,167.8c0,48.5,20.5,92.2,53.2,122.9l189-272.4
		C458.2,155.2,432.6,148.7,405.4,148.7z"/>
</g>
<g>
	<path class="st10" d="M405.3,184.2c-64.8,0-117.4,52.9-117.4,118.1c0,34.2,14.4,64.9,37.5,86.5L458.5,197
		C442.5,188.9,424.5,184.2,405.3,184.2z"/>
</g>
<g>
	<path class="st10" d="M309.5,493.9c22.7,60.7-8.4,128.5-69.5,151.3c-32,12-65.9,9.2-94.1-4.8L282,449
		C295.2,461.1,302.8,476,309.5,493.9z"/>
</g>
<text transform="matrix(-0.5553 0.8317 0.8317 0.5553 307.7558 214.6156)" class="st4 st11">12</text>
<text transform="matrix(-0.5553 0.8317 0.8317 0.5553 273.3842 300.1137)" class="st4 st11">1</text>
<text transform="matrix(-0.5553 0.8317 0.8317 0.5553 294.5406 386.4938)" class="st4 st11">2</text>
<text transform="matrix(-0.5553 0.8317 0.8317 0.5553 387.9322 161.7056)" class="st4 st11">11</text>
<text transform="matrix(-0.5553 0.8317 0.8317 0.5553 464.7194 163.8667)" class="st4 st11">10</text>
<text transform="matrix(-0.5773 0.8165 -0.8165 -0.5773 328.2313 594.6282)" class="st4 st12">12</text>
<text transform="matrix(-0.7411 0.6715 -0.6715 -0.7411 241.3982 655.2737)" class="st4 st5">1</text>
<text transform="matrix(-0.7411 0.6715 -0.6715 -0.7411 144.7814 655.2741)" class="st4 st5">2</text>
<text transform="matrix(-0.5773 0.8165 -0.8165 -0.5773 345.6053 520.9952)" class="st4 st5">11</text>
<text transform="matrix(-0.7411 0.6715 -0.6715 -0.7411 321.75 437.9879)" class="st4 st5">10</text>
<path class="st13" d="M142.3,647.4c0,0-110.7-67,49.6-200l116.5-38.1L142.3,647.4z"/>
<path class="st14" d="M146.4,638.9c-35.5-34.9-40.1-52.3-35.7-61.6c4.5-9.6,19.3-11.9,22.6-26.3c1.9-8.3-2-11.6-1.6-20.9
	c0.4-8.2-2-23.5,13.6-36.9c-4.6,2.2-46.4,30-56,86c-9.5,55.1,26.6,93.4,30.3,97.2C128.5,663.9,137.4,651.4,146.4,638.9z"/>
<path class="st15" d="M149.1,518.4c0,0,8,28.4,32.7,32.9c0,0-0.2,6.3-5.1,7.5C171.7,560.1,131,540.1,149.1,518.4z"/>
<path class="st16" d="M195.3,536.1c0,0-31.9,0-30.6-23.7C164.6,512.3,192.1,516.5,195.3,536.1z"/>
<path class="st17" d="M168.4,525.4c0,0,19.2-14.3,14.6,8.8C183,534.2,173.8,532.1,168.4,525.4z"/>
<path class="st14" d="M253.2,487.7c-12.4-23.9-12.7-31.1-10.3-33c4.5-3.6,19.9,11.1,29.7,5.3c2.6-1.5,3.9-4,4.5-5.5
	c12-17.3,23.9-34.5,35.9-51.8c0,0-83.7-25-153.8,76.5c0,0,62.8-43.1,67.1-28.6s-1.6,26.5,19.3,47.5
	C248.1,494.6,250.7,491.1,253.2,487.7z"/>
<path class="st13" d="M162.9,473.5c0,0-24,13.7-21,22.8C145.1,505.4,162.9,473.5,162.9,473.5z"/>
<path class="st18" d="M251.9,489.1c0,0-26.2-18-10.7-35.2c15.5-17.2,32.1,4.9,32.1,4.9L251.9,489.1z"/>
<path class="st19" d="M241.4,453c1.3,3,3.7,7.4,7.9,11.8c4.7,4.8,9.6,7.4,12.7,8.7"/>
<path class="st9" d="M456.9,202.2c28.6,17.2,35.1,37.1,36.9,44.1c7.5,29.6-11.2,59.2-28.8,86.8c-6.3,9.8-14.7,21-25.4,35.3
	c-7.3,9.8-11.2,14.5-16.6,20c-8.7,8.7-10.3,8.1-20.9,17.9c-12.8,11.9-13.6,15.7-22.8,22c-7.6,5.2-14.8,7.9-19.6,9.3
	c-3.8,0.4-9.4,1.1-16.2,2.2c-15,2.6-19,4.6-25.9,4.7c-6.1,0-14.9-1.6-25.6-9.2C310.7,409,420.6,253.5,456.9,202.2z"/>
<path class="st20" d="M356.4,397c0,0-17.9-23.8-21-24.3l-9.5,13.7C325.9,386.4,339.3,400.1,356.4,397z"/>
<path class="st21" d="M356.4,397c-4.1-1.6-9.7-4.3-15.5-8.9c-4.1-3.2-7.2-6.5-9.4-9.3"/>
<path class="st22" d="M397.9,318.1c0,0,6.4-1.5,13.8-0.5c0.4,0.1,0.8,0.1,1.2,0.2c9.1,1.5,19.1,7,20.6,23.5
	C433.4,341.3,402.9,325.7,397.9,318.1z"/>
<path class="st23" d="M412.9,318.3c-3.2,1-5.7,4.8-4.9,7.3c0.1,0.5,0.4,1,5.5,4.3c2.4,1.5,3.6,2.3,4.1,2.4c4.3,0.9,8.9-5.1,10.1-6.7
	c-3.1-3.9-6.5-5.6-8.4-6.4C417.2,318.4,415.2,317.6,412.9,318.3z"/>
<path class="st24" d="M409.1,304.4c0,0,41.7,5.9,44.1,29.8c0,0,24.1-29.7-38.2-37.3L409.1,304.4z"/>
<path class="st25" d="M453.7,205.9c0,0,22.6,139.4-2.7,156.9c0,0-4.1,7.8,9,4.8c13.1-3,30.5-20.6,32.4-26.3
	c1.9-5.7,10.5,18.9,28.4-2.4c17.9-21.3,16.9-34.3,21.7-48.5c4.8-14.2,18.2-39.2,5.5-66s-66.4-57.8-66.4-57.8L453.7,205.9z"/>
<path class="st26" d="M343.8,361.8c0,0,42.3,31.5,43.8,42.2c1.5,10.7,0,12.3,0,12.3L377.2,427l-11.5,7.3l-11.4,4.1l-27.4,4.8
	c0,0-15.4,3.7-24.3-1.1c-8.9-4.8-10.5-6-10.5-6c1.3-2.6,3.3-6.4,6.2-10.8c2.4-3.6,3.1-4.2,7-9.4c5.9-7.9,8.9-11.9,11.5-16.4
	c2-3.5,5.1-6.4,6.7-10.1c0.3-0.7,1.2-2.9,2.5-2.9c0.6,0,1,0.4,1.4,0.7c0,0,1.9,1.7,6.9,5c1.3,0.8,2.3,1.3,3.2,1.8
	c6.3,3,12.3,3.4,14.5,3.1c1.1-0.2,2.2-0.7,3.7-0.5c0.2,0,0.9,0.1,1-0.1c0.1-0.2-0.2-0.3-0.5-0.7c-0.6-0.7-0.5-1-0.9-1.6
	c-0.4-0.6-0.9-0.8-1.1-0.9c-1.6-1-4.2-5.2-6.5-8.5c-1.2-1.7-2.7-3.5-5.8-7.2c-2.1-2.5-0.2-0.1-2.2-2.3c-1.3-1.5-2.3-2.7-3.4-2.6
	c-0.3,0-0.4,0.2-0.5,0.1c-0.4-0.4,1.9-3.6,2.4-4.3C339.4,366.6,341.2,364.3,343.8,361.8z"/>
<path class="st9" d="M445.4,358.5c2.8,0.3,5.3,1,6.4,3c5,8.9-21.9,41.1-42.8,37.7C406.9,398.8,404.6,398.4,445.4,358.5z"/>
<g>
	<path class="st3" d="M335.3,709.1c-0.5,6.3-6,8.2-12.8,8.2c-7,0-12.8-2-12.8-9.1v-1.4c0-7.1,5.8-9.1,12.8-9.1
		c6.8,0,12.3,1.9,12.8,8.2h-7.5c-0.7-1.8-2.8-2.3-5.3-2.3c-3,0-5.5,0.6-5.5,3.7v0.5c0,3.1,2.5,3.6,5.5,3.7c2.5,0,4.6-0.4,5.3-2.3
		H335.3z"/>
	<path class="st3" d="M344.8,710.5v6.4h-7.3v-18.7h7.3v6.4h11v-6.4h7.3v18.7h-7.3v-6.4H344.8z"/>
	<path class="st3" d="M385.5,698.1c3.9,0,7.1,3.2,7.1,7.1c0,1.4-0.4,2.7-1.1,3.8c-0.7,1.1-1.7,2-3,2.6l4.1,5.3h-7.8l-3.5-4.6h-6.5
		v4.6h-7.3v-18.7H385.5z M374.7,703.6v3.2h8.9c0.4,0,0.8-0.2,1.1-0.5c0.3-0.3,0.5-0.7,0.5-1.1c0-0.9-0.7-1.6-1.6-1.6H374.7z"/>
	<path class="st3" d="M402.1,698.1v18.7h-7.3v-18.7H402.1z"/>
	<path class="st3" d="M417,705.4c5.2,0.3,12.6,0.6,12.6,5.3c0,5.4-6.1,6.6-12.7,6.6c-6.6,0-12-0.8-12.7-6.6h7.7
		c0.8,1.5,2.8,1.8,5.1,1.8c2.3,0,5.1-0.4,5.1-1.8c0-0.8-2.3-0.9-5.2-1.1c-5.2-0.3-12.6-0.6-12.6-5.3c0-5.4,6.1-6.6,12.7-6.6
		c6.6,0,12,0.8,12.7,6.6h-7.7c-0.8-1.5-2.8-1.8-5.1-1.8c-2.3,0-5.1,0.3-5.1,1.8C411.7,705.1,414,705.2,417,705.4z"/>
	<path class="st3" d="M438.5,716.9v-12.8h-8.7v-5.9h24.7v5.9h-8.7v12.8H438.5z"/>
	<path class="st3" d="M480.6,706.8v1.4c0,7.1-5.7,9.1-12.8,9.1c-7.1,0-12.8-2.1-12.8-9.1v-1.4c0-7.1,5.7-9.1,12.8-9.1
		C474.9,697.7,480.6,699.7,480.6,706.8z M473.3,707.3c0-3.1-2.5-3.6-5.5-3.7c-3,0-5.5,0.6-5.5,3.7v0.5c0,3.1,2.5,3.6,5.5,3.7
		c3,0,5.5-0.6,5.5-3.7V707.3z"/>
	<path class="st3" d="M500.8,698.1c3.9,0,7.1,3.2,7.1,7.1c0.1,3.9-3.2,7.1-7.1,7.1h-10.8v4.6h-7.3v-18.7H500.8z M499,706.8
		c0.4,0,0.8-0.2,1.1-0.5c0.3-0.3,0.5-0.7,0.5-1.1c0-0.4-0.2-0.8-0.5-1.1c-0.3-0.3-0.7-0.5-1.1-0.5h-8.9v3.2H499z"/>
	<path class="st3" d="M517.2,710.5v6.4h-7.3v-18.7h7.3v6.4h11v-6.4h7.3v18.7h-7.3v-6.4H517.2z"/>
	<path class="st3" d="M539.8,698.1h21.9v4.8h-14.6v2.4h14.6v4.3h-14.6v2.4h14.6v4.8h-21.9V698.1z"/>
	<path class="st3" d="M583.7,698.1c3.9,0,7.1,3.2,7.1,7.1c0,1.4-0.4,2.7-1.1,3.8c-0.7,1.1-1.7,2-3,2.6l4.1,5.3H583l-3.5-4.6h-6.5
		v4.6h-7.3v-18.7H583.7z M572.9,703.6v3.2h8.9c0.4,0,0.8-0.2,1.1-0.5c0.3-0.3,0.5-0.7,0.5-1.1c0-0.9-0.7-1.6-1.6-1.6H572.9z"/>
</g>
<g>
	<path class="st3" d="M122.4,449.5h15.3v6h-15.3V449.5z"/>
	<path class="st3" d="M137.7,440.5h-10.4v7.1h-4.8v-20.1h4.8v7.1h10.4V440.5z"/>
	<path class="st3" d="M132.5,409.7h5.2v6h-15.3v-6h5.2v-9h-5.2v-6h15.3v6h-5.2V409.7z"/>
	<path class="st3" d="M122.4,386.1V379l15.3-8.2v6.7l-2.6,1.2v7.7l2.6,1.2v6.7L122.4,386.1z M131.4,384.6v-4.2l-4.5,2.1L131.4,384.6
		z"/>
	<path class="st3" d="M128.3,360.8c0.2-4.3,0.5-10.3,4.3-10.3c4.4,0,5.4,5,5.4,10.4c0,5.4-0.7,9.8-5.4,10.4V365
		c1.2-0.7,1.5-2.3,1.5-4.1c0-1.9-0.3-4.1-1.5-4.1c-0.7,0-0.8,1.9-0.9,4.3c-0.2,4.3-0.5,10.3-4.3,10.3c-4.4,0-5.4-5-5.4-10.4
		c0-5.4,0.6-9.8,5.4-10.4v6.2c-1.2,0.7-1.5,2.3-1.5,4.1c0,1.9,0.3,4.1,1.5,4.1C128.1,365,128.2,363.2,128.3,360.8z"/>
	<path class="st3" d="M122.4,334v-6h15.3v6.7l-9.3,8.2h9.3v6h-15.3v-8.2l8.1-6.7H122.4z"/>
	<path class="st3" d="M121.7,323.5c2,0.5,4.5,1.5,5.5,2.2l0.2,1.3c-1.4-0.5-3.8-1.1-5.5-1.4L121.7,323.5z"/>
	<path class="st3" d="M137.7,315.6h-10.4v7.1h-4.8v-20.1h4.8v7.1h10.4V315.6z"/>
	<path class="st3" d="M132.5,284.8h5.2v6h-15.3v-6h5.2v-9h-5.2v-6h15.3v6h-5.2V284.8z"/>
	<path class="st3" d="M122.4,261.2v-7.1l15.3-8.2v6.7l-2.6,1.2v7.7l2.6,1.2v6.7L122.4,261.2z M131.4,259.7v-4.2l-4.5,2.1
		L131.4,259.7z"/>
	<path class="st3" d="M122.4,230.7c0-3.2,2.6-5.8,5.8-5.8c3.2,0,5.8,2.6,5.8,5.8v8.8h3.7v6h-15.3V230.7z M129.5,232.2
		c0-0.4-0.1-0.7-0.4-0.9c-0.3-0.3-0.6-0.4-0.9-0.4c-0.4,0-0.7,0.1-0.9,0.4c-0.3,0.3-0.4,0.6-0.4,0.9v7.3h2.6V232.2z"/>
	<path class="st3" d="M122.4,208.5c0-3.2,2.6-5.8,5.8-5.8c3.2,0,5.8,2.6,5.8,5.8v8.8h3.7v6h-15.3V208.5z M129.5,210
		c0-0.4-0.1-0.7-0.4-0.9c-0.3-0.3-0.6-0.4-0.9-0.4c-0.4,0-0.7,0.1-0.9,0.4c-0.3,0.3-0.4,0.6-0.4,0.9v7.3h2.6V210z"/>
	<path class="st3" d="M122.4,201.1v-17.9h3.9v11.9h2v-11.9h3.5v11.9h2v-11.9h3.9v17.9H122.4z"/>
	<path class="st3" d="M122.4,165.1v-6h15.3v6.7l-9.3,8.2h9.3v6h-15.3v-8.2l8.1-6.7H122.4z"/>
	<path class="st3" d="M122.4,155.7v-17.9h3.9v11.9h2v-11.9h3.5v11.9h2v-11.9h3.9v17.9H122.4z"/>
	<path class="st3" d="M122.4,121c-0.1-4.2,3.5-7.3,7.6-7.3c4.2,0,7.7,3.1,7.6,7.3v13.6h-15.3V121z M127.3,122.1v6.5h5.6v-6.5
		c0-1.5-1.3-2.4-2.8-2.4C128.5,119.7,127.3,120.5,127.3,122.1z"/>
	<path class="st3" d="M142.2,112.1l-4.5-1.5v2.6h-4.5v-6h4.5l4.5,2.6V112.1z"/>
	<path class="st3" d="M127.9,83.8l-5.5-4.5v-7.1l10.1,8.6h5.2v6h-5.2l-10.1,8.6v-7.1L127.9,83.8z"/>
	<path class="st3" d="M122.4,71.8V53.9h3.9v11.9h2V53.9h3.5v11.9h2V53.9h3.9v17.9H122.4z"/>
	<path class="st3" d="M137.7,45h-10.4V52h-4.8V31.9h4.8V39h10.4V45z"/>
	<path class="st3" d="M133.2,25.5h4.5v6h-4.5V25.5z"/>
</g>
<g>
	<path class="st3" d="M178.9,27.1h9.7l11.3,21h-9.2l-1.7-3.6h-10.5l-1.7,3.6h-9.2L178.9,27.1z M180.9,39.4h5.8l-2.9-6.2L180.9,39.4z
		"/>
	<path class="st3" d="M219,27.1h8.2v11.3c0,7.9-6.5,10.2-14.3,10.2c-7.9,0-14.4-2.3-14.3-10.2V27.1h8.2v10.8c0,3.5,2.8,4,6.2,4.1
		c3.3,0,6.2-0.6,6.1-4.1V27.1z"/>
	<path class="st3" d="M244.1,36.6h14.3v12h-4.1l-0.4-3.3c-2.4,2.4-6.1,3.3-9.7,3.3c-7.9,0-14.4-2.3-14.3-10.2v-1.5
		c0-8,6.4-10.2,14.3-10.2c7.3,0,13.3,2,14.2,8.5h-8.7c-0.5-0.7-1.3-1.2-2.2-1.4s-2.1-0.4-3.3-0.4c-3.4,0-6.2,0.7-6.2,4.1v0.5
		c0,3.5,2.8,4,6.2,4.1c3.2,0,5.3-0.2,6.5-1.8h-6.6V36.6z"/>
	<path class="st3" d="M281.6,27.1h8.2v11.3c0,7.9-6.5,10.2-14.3,10.2c-7.9,0-14.4-2.3-14.3-10.2V27.1h8.2v10.8c0,3.5,2.8,4,6.2,4.1
		c3.3,0,6.2-0.6,6.1-4.1V27.1z"/>
	<path class="st3" d="M306.5,35.2c5.9,0.3,14.1,0.7,14.1,6c0,6-6.9,7.4-14.2,7.4c-7.4,0-13.5-0.9-14.2-7.4h8.6c0.9,1.6,3.1,2,5.7,2
		c2.5,0,5.7-0.4,5.7-2c0-0.9-2.5-1.1-5.8-1.2c-5.9-0.3-14.1-0.7-14.1-6c0-6,6.9-7.4,14.2-7.4c7.4,0,13.5,0.9,14.2,7.4H312
		c-0.9-1.7-3.1-2-5.7-2c-2.5,0-5.7,0.4-5.7,2C300.7,34.9,303.2,35.1,306.5,35.2z"/>
	<path class="st3" d="M330.6,48.1V33.8h-9.7v-6.7h27.7v6.7h-9.7v14.3H330.6z"/>
	<path class="st3" d="M382.2,40.3c-2.2,0.5-3.9,1-4.5,1.8H391v6h-26.3v-3.5c0-4.8,7.1-6.6,12.5-7.9c3.3-0.8,5.9-1.5,5.9-2.6
		c0-0.9-1.3-1.5-4.3-1.5c-3,0-5.7,0.5-5.6,2.4h-8.2c0-7.1,5.5-8.4,13.5-8.4c8.1,0,12.8,1.9,12.8,7C391.4,38,386.2,39.3,382.2,40.3z"
		/>
	<path class="st3" d="M418.6,41.1c0,3.4-2.3,7.5-13,7.5c-8.4,0-13.7-1.4-13.7-8.3v-5c0-6.9,5.2-8.3,13.7-8.3H417v5.2h-13.9
		c-1.1,0-3.9,0.2-3.9,2.3v0.5l0.8-0.1c0.5-0.1,1.4-0.2,2.8-0.3c1.4-0.1,2.9-0.1,4.7,0s3.5,0.3,5.1,0.7c1.7,0.4,3.1,1,4.2,1.9
		C418.1,38.3,418.6,39.6,418.6,41.1z M410.9,40.2c-0.7-0.5-1.8-0.8-3.3-1c-1.5-0.1-3-0.2-4.4,0c-1.5,0.1-2.6,0.2-3.3,0.4l-0.5,0.1v2
		c0,0.4,0.4,1.6,6.4,1.6c1.3,0,5.5-0.2,5.5-2.3C411.3,40.8,411.3,40.5,410.9,40.2z"/>
	<path class="st3" d="M420.8,54.3l2-6.1h-3.6V42h8.2v6.2l-3.6,6.1H420.8z"/>
	<path class="st3" d="M461.2,40.3c-2.2,0.5-3.9,1-4.5,1.8H470v6h-26.3v-3.5c0-4.8,7.1-6.6,12.5-7.9c3.3-0.8,5.9-1.5,5.9-2.6
		c0-0.9-1.3-1.5-4.3-1.5c-3,0-5.7,0.5-5.6,2.4H444c0-7.1,5.5-8.4,13.5-8.4c8.1,0,12.8,1.9,12.8,7C470.4,38,465.2,39.3,461.2,40.3z"
		/>
	<path class="st3" d="M497.6,36.3v2.6c0,4-1.8,6.4-4.4,7.8c-1.2,0.6-2.4,1.1-3.8,1.4c-1.7,0.4-3.5,0.5-5.2,0.5s-3.5-0.1-5.2-0.5
		c-4.4-1-8.1-3.5-8.1-9.2v-2.6c0-4,1.8-6.4,4.4-7.8c1.1-0.6,2.4-1.1,3.8-1.4c1.7-0.4,3.5-0.5,5.2-0.5s3.5,0.1,5.2,0.5
		C493.9,28,497.6,30.6,497.6,36.3z M489.4,36.8c0-1.7-0.6-2.7-1.6-3.3c-1-0.6-2.2-0.8-3.5-0.8c-2.5,0-5.1,0.7-5.1,4.1v1.5
		c0,1.7,0.6,2.8,1.6,3.3s2.2,0.8,3.5,0.8c2.6,0,5.1-0.7,5.1-4.1V36.8z"/>
	<path class="st3" d="M515.7,40.3c-2.2,0.5-3.9,1-4.5,1.8h13.4v6h-26.3v-3.5c0-4.8,7.1-6.6,12.5-7.9c3.3-0.8,5.9-1.5,5.9-2.6
		c0-0.9-1.3-1.5-4.3-1.5c-3,0-5.7,0.5-5.6,2.4h-8.2c0-7.1,5.5-8.4,13.5-8.4c8.1,0,12.8,1.9,12.8,7C524.9,38,519.7,39.3,515.7,40.3z"
		/>
	<path class="st3" d="M552.1,36.3v2.6c0,4-1.8,6.4-4.4,7.8c-1.2,0.6-2.4,1.1-3.8,1.4c-1.7,0.4-3.5,0.5-5.2,0.5s-3.5-0.1-5.2-0.5
		c-4.4-1-8.1-3.5-8.1-9.2v-2.6c0-4,1.8-6.4,4.4-7.8c1.1-0.6,2.4-1.1,3.8-1.4c1.7-0.4,3.5-0.5,5.2-0.5s3.5,0.1,5.2,0.5
		C548.4,28,552.1,30.6,552.1,36.3z M543.9,36.8c0-1.7-0.6-2.7-1.6-3.3c-1-0.6-2.2-0.8-3.5-0.8c-2.5,0-5.1,0.7-5.1,4.1v1.5
		c0,1.7,0.6,2.8,1.6,3.3s2.2,0.8,3.5,0.8c2.6,0,5.1-0.7,5.1-4.1V36.8z"/>
</g>
<text transform="matrix(1 0 0 1 61.0853 798.9261)"><tspan x="0" y="0" class="st3 st27 st28">Elizabeth Debicki</tspan><tspan x="36.4" y="14.4" class="st3 st27 st28">Kat</tspan></text>
<text transform="matrix(1 0 0 1 173.2958 798.926)"><tspan x="0" y="0" class="st3 st27 st28">John David Washington</tspan><tspan x="32" y="14.4" class="st3 st27 st28">Protagonist</tspan></text>
<text transform="matrix(1 0 0 1 319.0823 801.422)"><tspan x="0" y="0" class="st3 st27 st28">Robert Pattinson</tspan><tspan x="34.3" y="14.4" class="st3 st27 st28">Neil</tspan></text>
<text transform="matrix(1 0 0 1 428.6011 801.4222)"><tspan x="0" y="0" class="st3 st27 st28">Kenneth Branagh</tspan><tspan x="12.8" y="14.4" class="st3 st27 st28">Andrei Sator</tspan></text>
<image style="overflow:visible;" width="982" height="1023" xlink:href="Warner_Bros_logo.svg.png"  transform="matrix(4.291573e-02 0 0 4.291573e-02 542.5281 792.59)">
</image>
<line class="st29" x1="207.2" y1="546.6" x2="220.8" y2="522.4"/>
<path class="st29" d="M212.6,514.5c0-0.8,0.3-4.6,3.5-7.5c2.4-2.2,5-2.6,6-2.8"/>
<path class="st29" d="M223.1,508.7c-0.8,1.2-1.1,2.1-0.8,2.9c0.8,2,5.8,2.2,14.9,0.7"/>
<line class="st30" x1="392.5" y1="305.5" x2="376.6" y2="328.3"/>
<path class="st30" d="M381.6,335.2c-0.2,0.7-1.2,4.3-4.3,7c-2.3,2.1-4.6,2.6-5.4,2.8"/>
<path class="st30" d="M372,340.9c0.9-1.1,1.3-2,1.2-2.7c-0.3-1.8-4.2-1.8-11.9-0.1"/>  
<line class="st31" x1="631" y1="-43.8" x2="-8.2" y2="857.6"/>
<polygon id="Wijze2" points="399.9,219.1 398.7,219 389.5,279 398.6,279.5 "/>
<g id="wijzer1">
	<path d="M398.2,271.2c-3.8-0.1-7.2,1.3-9.8,3.7l3.5,0l-0.4,16.1l-6.7-0.8c0.9,2.3,2.4,4.3,4.3,5.9l16.2-22.6
		C403.3,272.1,400.8,271.3,398.2,271.2z"/>
	<path id="Wijzer--1" d="M388.4,274.9l-103,1l0,2.1l99.5,12.1c-0.6-1.7-1-3.4-0.9-5.3C384,280.9,385.7,277.4,388.4,274.9z"/>
	<path d="M391.9,274.9l-3.5,0c-2.7,2.5-4.4,6-4.5,9.9c0,1.9,0.3,3.7,0.9,5.3l6.7,0.8L391.9,274.9z"/>
</g>
<polygon points="215.1,605.5 216.3,605.5 224,545.4 214.9,545.1 "/>
<g>
	<path d="M215.6,553.3c3.8,0,7.2-1.5,9.7-3.9l-3.5,0.1l0-16.1l6.7,0.6c-0.9-2.3-2.5-4.3-4.4-5.8l-15.7,22.9
		C210.4,552.6,212.9,553.3,215.6,553.3z"/>
	<path d="M225.3,549.4l103-3.5l0-2.1l-99.8-9.6c0.7,1.6,1.1,3.4,1.1,5.3C229.5,543.3,227.9,546.8,225.3,549.4z"/>
	<path d="M221.7,549.5l3.5-0.1c2.6-2.5,4.2-6.1,4.2-10c0-1.9-0.4-3.7-1.1-5.3l-6.7-0.6L221.7,549.5z"/>
</g>
</svg>
