<?xml version="1.0" encoding="utf-8"?>
<!-- Generator: Adobe Illustrator 28.0.0, SVG Export Plug-In . SVG Version: 6.00 Build 0)  -->
<svg version="1.1" id="Laag_1" xmlns="http://www.w3.org/2000/svg" xmlns:xlink="http://www.w3.org/1999/xlink" x="0px" y="0px"
	 viewBox="0 0 595.3 841.9" style="enable-background:new 0 0 595.3 841.9;" xml:space="preserve">
<style type="text/css">
	.st0{fill:#141025;}
	.st1{fill:#0F2226;}
	.st2{fill:#FFFFFF;}
	.st3{font-family:'Bauhaus93';}
	.st4{font-size:29.5295px;}
	.st5{fill:none;stroke:#362515;stroke-miterlimit:10;}
	.st6{fill:none;stroke:#D69AA8;stroke-miterlimit:10;}
	.st7{fill:none;stroke:#EAB7BB;stroke-miterlimit:10;}
	.st8{fill:#E6BEBE;}
	.st9{fill:#FFFFFF;stroke:#010202;stroke-width:2;stroke-miterlimit:10;}
	.st10{fill:#9E6645;}
	.st11{fill:#1B1814;}
	.st12{fill:#23180E;}
	.st13{fill:#D3D3C5;stroke:#23180E;stroke-miterlimit:10;}
	.st14{fill:#1C130D;}
	.st15{fill:#7E5940;}
	.st16{fill:none;stroke:#402413;stroke-width:3;stroke-miterlimit:10;}
	.st17{fill:#D69AA8;}
	.st18{fill:none;stroke:#B76A82;stroke-miterlimit:10;}
	.st19{fill:#E5E5DF;stroke:#EAB7BB;stroke-miterlimit:10;}
	.st20{fill:#74788C;}
	.st21{fill:#664F52;}
	.st22{fill:#33262D;}
	.st23{opacity:0.17;fill:#6B5A5B;}
	.st24{fill:none;stroke:#010202;stroke-width:3;stroke-miterlimit:10;}
</style>
<rect x="0" y="0" class="st0" width="595.3" height="841.9"/>
<path class="st1" d="M29.5,841.9l1.4-37h31.6l2.4-45.8l28-39.6l-2.3,48.6l35,0.6l-1.8,64.3l25.5,0.2v-27.9c0,0,19.6-0.2,19-0.2
	c-0.6,0-0.8-18,0-18.2s22.1-0.2,22.1-0.2v-29.5l28.1-0.8V779l6.5,3.8l-1.8,35.8l11.7,8.7v-50.8l22.9,0.8l1.2,35.6
	c0,0,8.5-5.3,9.1-5.9s0-47.5,0-47.5l26.1-0.2v27.7c0,0,18.6,2.8,19,1s0-19.6,0-19.6l28,1.8v33.8h36.1V688.6l28.9,1.4l1.8,78.7
	l30.9,0.4v62.7l24.3,0.2v-27.1H483l-1-17.4l23.5-1.2v-28.1l26.9,0.6v20.4l7.9,5.1V818h6.3v-69.6l25.1,0.4v87h3.4v-26.1l6.9,0.8
	v-52.8l13.1,0.6l0.6,83.6L29.5,841.9z"/>
<path class="st1" d="M577.6-0.5l-1.4,37h-32.3l-2.5,45.8l-28.6,39.6l2.4-48.6l-35.7-0.6l1.8-64.3l-26-0.2v27.9c0,0-20,0.2-19.4,0.2
	c0.6,0,0.8,18,0,18.2c-0.8,0.2-22.6,0.2-22.6,0.2v29.5L384.7,85V62.4l-6.7-3.8l1.8-35.8L368,14.2V65l-23.4-0.8l-1.2-35.6
	c0,0-8.7,5.3-9.3,5.9c-0.6,0.6,0,47.5,0,47.5l-26.6,0.2V54.5c0,0-19-2.8-19.4-1s0,19.6,0,19.6l-28.6-1.8V37.5h-36.8v115.3l-29.5-1.4
	l-1.8-78.7L160,72.3V9.6l-24.8-0.2v27.1H115l1,17.4l-24,1.2v28.1l-27.4-0.6V62.2l-8.1-5.1V23.4h-6.5v69.6l-25.6-0.4v-87H21v26.1
	L13.9,31v52.8L0.6,83.2L0-0.5L577.6-0.5z"/>
<g>
	<path class="st2" d="M107.9,518.7H56v35.2H31.9V453.8H56V489h51.9V518.7z"/>
	<path class="st2" d="M31.9,443.9v-89h19.5v59.4h9.7v-59.4h17.6v59.4h9.7v-59.4h19.5v89H31.9z"/>
	<path class="st2" d="M31.8,265v-29.7h76v33.4l-46.5,40.9h46.5v29.6h-76v-40.8L72,265H31.8z"/>
	<path class="st2" d="M31.9,218v-89h19.5v59.4h9.7V129h17.6v59.4h9.7V129h19.5v89H31.9z"/>
	<path class="st2" d="M107.9,84.4H56v35.2H31.9V19.6H56v35.2h51.9V84.4z"/>
</g>
<g>
	<path class="st2" d="M389.1,693.4h6l6.9,12.9h-5.7l-1-2.2h-6.5l-1,2.2h-5.7L389.1,693.4z M390.3,701h3.6l-1.8-3.8L390.3,701z"/>
	<path class="st2" d="M412,693.4h6.3l5,6.5l5.1-6.5h6.3v12.9h-5v-6.9l-5.1,6.9h-2.5l-5.1-6.9v6.9h-5V693.4z"/>
	<path class="st2" d="M454.2,699.4v0.9c0,4.9-4,6.3-8.8,6.3c-4.9,0-8.9-1.4-8.8-6.3v-0.9c0-4.9,4-6.3,8.8-6.3
		C450.3,693.1,454.2,694.5,454.2,699.4z M449.2,699.7c0-2.1-1.7-2.5-3.8-2.5c-2.1,0-3.8,0.4-3.8,2.5v0.3c0,2.1,1.7,2.5,3.8,2.5
		c2.1,0,3.8-0.4,3.8-2.5V699.7z"/>
	<path class="st2" d="M462.9,702.4l3.9-9h5.7l-6.6,12.9h-6l-6.6-12.9h5.7L462.9,702.4z"/>
	<path class="st2" d="M478,693.4v12.9h-5v-12.9H478z"/>
	<path class="st2" d="M480.6,693.4h15.1v3.3h-10.1v1.7h10.1v3h-10.1v1.7h10.1v3.3h-15.1V693.4z"/>
	<path class="st2" d="M505.8,693.4h15.8v4.1h-10.7v1.6h9.5v3.8h-9.5v3.5h-5V693.4z"/>
	<path class="st2" d="M535.5,693.4c2.7,0,4.9,2.2,4.9,4.9c0,1-0.3,1.9-0.8,2.6c-0.5,0.8-1.2,1.4-2,1.8l2.8,3.6H535l-2.4-3.2h-4.5
		v3.2h-5v-12.9H535.5z M528.1,697.2v2.2h6.2c0.3,0,0.6-0.1,0.8-0.3c0.2-0.2,0.3-0.5,0.3-0.8c0-0.6-0.5-1.1-1.1-1.1H528.1z"/>
	<path class="st2" d="M559.2,699.4v0.9c0,4.9-4,6.3-8.8,6.3c-4.9,0-8.9-1.4-8.8-6.3v-0.9c0-4.9,4-6.3,8.8-6.3
		C555.3,693.1,559.2,694.5,559.2,699.4z M554.2,699.7c0-2.1-1.7-2.5-3.8-2.5c-2.1,0-3.8,0.4-3.8,2.5v0.3c0,2.1,1.7,2.5,3.8,2.5
		c2.1,0,3.8-0.4,3.8-2.5V699.7z"/>
	<path class="st2" d="M560.7,693.4h6.3l5,6.5l5.1-6.5h6.3v12.9h-5v-6.9l-5.1,6.9h-2.5l-5.1-6.9v6.9h-5V693.4z"/>
</g>
<g>
	<path class="st2" d="M485.5,770h6.3v16.2h-7.1l-8.7-9.9v9.9h-6.3V770h8.7l7.1,8.6V770z"/>
	<path class="st2" d="M516.2,777.5v1.2c0,6.1-5,7.9-11,7.9c-6.1,0-11.1-1.8-11.1-7.9v-1.2c0-6.1,5-7.9,11.1-7.9
		C511.3,769.6,516.2,771.4,516.2,777.5z M509.9,777.9c0-2.6-2.2-3.1-4.7-3.2c-2.6,0-4.8,0.5-4.7,3.2v0.4c0,2.6,2.2,3.1,4.7,3.2
		c2.6,0,4.8-0.5,4.7-3.2V777.9z"/>
	<path class="st2" d="M524.4,770v11.1H537v5.1h-18.9V770H524.4z"/>
	<path class="st2" d="M546.2,770h7.5l8.7,16.2h-7.1l-1.3-2.8h-8.1l-1.3,2.8h-7.1L546.2,770z M547.7,779.5h4.4l-2.2-4.8L547.7,779.5z
		"/>
	<path class="st2" d="M578.6,770h6.3v16.2h-7.1l-8.7-9.9v9.9h-6.3V770h8.7l7.1,8.6V770z"/>
</g>
<text transform="matrix(-0.5773 0.8165 -0.8165 -0.5773 332.9294 440.9028)" class="st3 st4">10</text>
<path class="st5" d="M223.4,531c0,0-30.5-21-12.4-41s37.4,5.7,37.4,5.7L223.4,531z"/>
<path class="st6" d="M345.5,424.3c0,0-20.8-27.7-24.4-28.3l-11.1,16C310,411.9,325.6,427.9,345.5,424.3z"/>
<path class="st7" d="M393.8,332.4c0,0,7.5-1.7,16.1-0.6c0.4,0.1,0.9,0.1,1.3,0.2c10.5,1.8,22.3,8.2,23.9,27.4
	C435.2,359.4,399.6,341.2,393.8,332.4z"/>
<path class="st8" d="M449.6,380.6"/>
<g>
	<path class="st9" d="M295.6,432.8L71.4,750c29,15.7,62.5,24.7,98.1,24.7c110.6,0,200.2-86.1,200.2-192.4
		C369.7,521.9,340.8,468.1,295.6,432.8z"/>
</g>
<g>
	<path class="st9" d="M399.8,133.6c-107.2,0-194.1,87.5-194.1,195.3c0,56.5,23.9,107.4,62,143.1l220.1-317.2
		C461.3,141.3,431.5,133.6,399.8,133.6z"/>
</g>
<g>
	<path class="st9" d="M399.4,176.6c-75.5,0-136.7,61.6-136.7,137.5c0,39.8,16.8,75.6,43.6,100.7l155-223.3
		C442.7,181.9,421.7,176.6,399.4,176.6z"/>
</g>
<g>
	<path class="st9" d="M290.8,537.1c26.4,70.7-9.8,149.6-80.9,176.2c-37.3,13.9-76.7,10.8-109.6-5.6l158.5-222.9
		C274.3,498.9,283,516.2,290.8,537.1z"/>
</g>
<text transform="matrix(-0.5553 0.8317 0.8317 0.5553 288.8044 211.9006)" class="st3 st4">12</text>
<text transform="matrix(-0.5553 0.8317 0.8317 0.5553 248.7849 311.4503)" class="st3 st4">1</text>
<text transform="matrix(-0.5553 0.8317 0.8317 0.5553 273.4177 412.0285)" class="st3 st4">2</text>
<text transform="matrix(-0.5553 0.8317 0.8317 0.5553 382.1599 150.2931)" class="st3 st4">11</text>
<text transform="matrix(-0.5553 0.8317 0.8317 0.5553 471.5681 152.8097)" class="st3 st4">10</text>
<text transform="matrix(-0.5773 0.8165 -0.8165 -0.5773 312.62 654.35)" class="st3 st4">12</text>
<text transform="matrix(-0.7411 0.6715 -0.6715 -0.7411 211.5708 725.0095)" class="st3 st4">1</text>
<text transform="matrix(-0.7411 0.6715 -0.6715 -0.7411 99.0735 725.0097)" class="st3 st4">2</text>
<text transform="matrix(-0.5773 0.8165 -0.8165 -0.5773 332.9152 568.6688)" class="st3 st4">11</text>
<text transform="matrix(-0.7411 0.6715 -0.6715 -0.7411 305.1292 472.01)" class="st3 st4">10</text>
<path class="st10" d="M96.2,715.8c0,0-128.9-78,57.7-232.9l135.7-44.4L96.2,715.8z"/>
<path class="st11" d="M100.9,705.9c-41.4-40.7-46.7-60.9-41.6-71.8c5.3-11.2,22.4-13.9,26.3-30.6c2.2-9.7-2.4-13.5-1.9-24.3
	c0.5-9.6-2.4-27.4,15.9-43c-5.3,2.5-54,34.9-65.2,100.1c-11,64.2,30.9,108.7,35.2,113.2C80.1,735,90.5,720.5,100.9,705.9z"/>
<path class="st12" d="M104.1,565.6c0,0,9.3,33.1,38.1,38.3c0,0-0.2,7.3-6,8.8C130.4,614.2,83,590.9,104.1,565.6z"/>
<path class="st13" d="M157.9,586.2c0,0-37.2,0-35.7-27.6C122.2,558.5,154.1,563.4,157.9,586.2z"/>
<path class="st14" d="M126.6,573.8c0,0,22.4-16.7,17,10.3C143.6,584.1,132.8,581.6,126.6,573.8z"/>
<path class="st11" d="M225.3,529.9c-14.5-27.8-14.8-36.3-12-38.5c5.3-4.2,23.2,13,34.6,6.2c3-1.8,4.6-4.7,5.3-6.4
	c13.9-20.1,27.9-40.2,41.8-60.3c0,0-97.4-29.1-179.1,89c0,0,73.1-50.2,78.2-33.3c5,16.8-1.9,30.8,22.4,55.3
	C219.4,537.9,222.4,533.9,225.3,529.9z"/>
<path class="st10" d="M120.2,513.4c0,0-28,15.9-24.4,26.5C99.4,550.5,120.2,513.4,120.2,513.4z"/>
<path class="st15" d="M223.8,531.5c0,0-30.5-21-12.4-41s37.4,5.7,37.4,5.7L223.8,531.5z"/>
<path class="st16" d="M211.6,489.5c1.5,3.5,4.3,8.7,9.2,13.7c5.5,5.6,11.2,8.6,14.8,10.1"/>
<path class="st8" d="M458.8,201.8c33.3,20,40.9,43.3,43,51.3c8.8,34.5-13.1,68.9-33.5,101.1c-7.3,11.5-17.1,24.5-29.6,41.2
	c-8.5,11.4-13,16.9-19.3,23.2c-10.1,10.1-12,9.4-24.3,20.8c-14.9,13.8-15.8,18.3-26.5,25.6c-8.9,6.1-17.3,9.2-22.8,10.9
	c-4.4,0.5-10.9,1.2-18.9,2.6c-17.4,3-22.1,5.4-30.2,5.4c-7.1,0-17.3-1.8-29.8-10.7C288.5,442.5,416.5,261.5,458.8,201.8z"/>
<path class="st17" d="M345.5,424.3c0,0-20.8-27.7-24.4-28.3l-11.1,16C310,411.9,325.6,427.9,345.5,424.3z"/>
<path class="st18" d="M345.5,424.3c-4.8-1.9-11.3-5-18-10.3c-4.8-3.8-8.4-7.6-11-10.8"/>
<path class="st19" d="M393.8,332.4c0,0,7.5-1.7,16.1-0.6c0.4,0.1,0.9,0.1,1.3,0.2c10.5,1.8,22.3,8.2,23.9,27.4
	C435.2,359.4,399.6,341.2,393.8,332.4z"/>
<path class="st20" d="M411.2,332.6c-3.7,1.2-6.6,5.5-5.7,8.5c0.2,0.6,0.5,1.2,6.4,5c2.8,1.8,4.2,2.7,4.8,2.9
	c5,1.1,10.4-5.9,11.8-7.8c-3.6-4.5-7.5-6.5-9.7-7.4C416.3,332.8,413.9,331.8,411.2,332.6z"/>
<path class="st21" d="M406.9,316.5c0,0,48.5,6.8,51.3,34.7c0,0,28-34.5-44.5-43.5L406.9,316.5z"/>
<path class="st22" d="M458.8,201.8c0,0,26.3,162.3-3.2,182.7c0,0-4.8,9.1,10.4,5.6c15.2-3.5,35.5-24,37.7-30.7s12.2,22,33.1-2.8
	s19.7-40,25.2-56.5s21.2-45.6,6.5-76.9C553.7,192,491.1,156,491.1,156L458.8,201.8z"/>
<path class="st23" d="M331,382.9c0,0,52.5,38.5,54.3,51.5c1.8,13,0,15,0,15l-12.9,13.1l-14.3,8.9l-14.2,5l-33.9,5.8
	c0,0-19.1,4.5-30.1-1.4c-11-5.9-13-7.3-13-7.3c1.6-3.1,4.1-7.8,7.7-13.1c3-4.4,3.9-5.2,8.7-11.5c7.3-9.7,11-14.6,14.2-20.1
	c2.5-4.3,6.3-7.8,8.4-12.4c0.4-0.8,1.5-3.5,3.1-3.6c0.7,0,1.3,0.5,1.7,0.8c0,0,2.3,2,8.5,6.1c1.6,1,2.8,1.6,4,2.2
	c7.8,3.7,15.3,4.1,18,3.7c1.4-0.2,2.7-0.8,4.6-0.7c0.3,0,1.1,0.1,1.2-0.2c0.1-0.2-0.2-0.4-0.7-0.9c-0.7-0.8-0.6-1.2-1.1-1.9
	c-0.5-0.7-1.1-1-1.4-1.1c-1.9-1.2-5.2-6.4-8.1-10.4c-1.5-2.1-3.4-4.3-7.1-8.7c-2.6-3.1-0.3-0.2-2.7-2.8c-1.7-1.8-2.9-3.4-4.2-3.1
	c-0.4,0.1-0.5,0.2-0.7,0.1c-0.5-0.5,2.3-4.4,2.9-5.2C325.5,388.7,327.7,385.9,331,382.9z"/>
<path class="st8" d="M449.1,379.4c3.2,0.3,6.2,1.2,7.5,3.5c5.8,10.4-25.5,47.9-49.9,43.9C404.3,426.4,401.6,425.9,449.1,379.4z"/>
<line class="st24" x1="665.4" y1="-90" x2="-3.4" y2="855.8"/>
<g>
	<path class="st2" d="M329.4,738.6c-0.5,6.3-6,8.2-12.8,8.2c-7,0-12.8-2-12.8-9.1v-1.4c0-7.1,5.8-9.1,12.8-9.1
		c6.8,0,12.3,1.9,12.8,8.2h-7.5c-0.7-1.8-2.8-2.3-5.3-2.3c-3,0-5.5,0.6-5.5,3.7v0.5c0,3.1,2.5,3.6,5.5,3.7c2.5,0,4.6-0.4,5.3-2.3
		H329.4z"/>
	<path class="st2" d="M338.9,740v6.4h-7.3v-18.7h7.3v6.4h11v-6.4h7.3v18.7h-7.3V740H338.9z"/>
	<path class="st2" d="M379.5,727.7c3.9,0,7.1,3.2,7.1,7.1c0,1.4-0.4,2.7-1.1,3.8c-0.7,1.1-1.7,2-3,2.6l4.1,5.3h-7.8l-3.5-4.6h-6.5
		v4.6h-7.3v-18.7H379.5z M368.7,733.1v3.2h8.9c0.4,0,0.8-0.2,1.1-0.5c0.3-0.3,0.5-0.7,0.5-1.1c0-0.9-0.7-1.6-1.6-1.6H368.7z"/>
	<path class="st2" d="M396.1,727.6v18.7h-7.3v-18.7H396.1z"/>
	<path class="st2" d="M411,734.9c5.2,0.3,12.6,0.6,12.6,5.3c0,5.4-6.1,6.6-12.7,6.6c-6.6,0-12-0.8-12.7-6.6h7.7
		c0.8,1.5,2.8,1.8,5.1,1.8c2.3,0,5.1-0.4,5.1-1.8c0-0.8-2.3-0.9-5.2-1.1c-5.2-0.3-12.6-0.6-12.6-5.3c0-5.4,6.1-6.6,12.7-6.6
		c6.6,0,12,0.8,12.7,6.6h-7.7c-0.8-1.5-2.8-1.8-5.1-1.8c-2.3,0-5.1,0.3-5.1,1.8C405.8,734.6,408,734.8,411,734.9z"/>
	<path class="st2" d="M432.5,746.4v-12.8h-8.7v-5.9h24.7v5.9h-8.7v12.8H432.5z"/>
	<path class="st2" d="M474.6,736.3v1.4c0,7.1-5.7,9.1-12.8,9.1c-7.1,0-12.8-2.1-12.8-9.1v-1.4c0-7.1,5.7-9.1,12.8-9.1
		C468.9,727.2,474.6,729.2,474.6,736.3z M467.3,736.8c0-3.1-2.5-3.6-5.5-3.7c-3,0-5.5,0.6-5.5,3.7v0.5c0,3.1,2.5,3.6,5.5,3.7
		c3,0,5.5-0.6,5.5-3.7V736.8z"/>
	<path class="st2" d="M494.9,727.7c3.9,0,7.1,3.2,7.1,7.1c0.1,3.9-3.2,7.1-7.1,7.1h-10.8v4.6h-7.3v-18.7H494.9z M493,736.3
		c0.4,0,0.8-0.2,1.1-0.5c0.3-0.3,0.5-0.7,0.5-1.1c0-0.4-0.2-0.8-0.5-1.1c-0.3-0.3-0.7-0.5-1.1-0.5h-8.9v3.2H493z"/>
	<path class="st2" d="M511.2,740v6.4h-7.3v-18.7h7.3v6.4h11v-6.4h7.3v18.7h-7.3V740H511.2z"/>
	<path class="st2" d="M533.8,727.7h21.9v4.8h-14.6v2.4h14.6v4.3h-14.6v2.4h14.6v4.8h-21.9V727.7z"/>
	<path class="st2" d="M577.7,727.7c3.9,0,7.1,3.2,7.1,7.1c0,1.4-0.4,2.7-1.1,3.8c-0.7,1.1-1.7,2-3,2.6l4.1,5.3H577l-3.5-4.6h-6.5
		v4.6h-7.3v-18.7H577.7z M566.9,733.1v3.2h8.9c0.4,0,0.8-0.2,1.1-0.5c0.3-0.3,0.5-0.7,0.5-1.1c0-0.9-0.7-1.6-1.6-1.6H566.9z"/>
</g>
<g>
	<path class="st2" d="M131.4,450.7h15.3v6h-15.3V450.7z"/>
	<path class="st2" d="M146.8,441.7h-10.4v7.1h-4.8v-20.1h4.8v7.1h10.4V441.7z"/>
	<path class="st2" d="M141.5,410.9h5.2v6h-15.3v-6h5.2v-9h-5.2v-6h15.3v6h-5.2V410.9z"/>
	<path class="st2" d="M131.5,387.2v-7.1l15.3-8.2v6.7l-2.6,1.2v7.7l2.6,1.2v6.7L131.5,387.2z M140.4,385.8v-4.2l-4.5,2.1
		L140.4,385.8z"/>
	<path class="st2" d="M137.4,362c0.2-4.3,0.5-10.3,4.3-10.3c4.4,0,5.4,5,5.4,10.4c0,5.4-0.7,9.8-5.4,10.4v-6.2
		c1.2-0.7,1.5-2.3,1.5-4.1c0-1.9-0.3-4.1-1.5-4.1c-0.7,0-0.8,1.9-0.9,4.3c-0.2,4.3-0.5,10.3-4.3,10.3c-4.4,0-5.4-5-5.4-10.4
		c0-5.4,0.6-9.8,5.4-10.4v6.2c-1.2,0.7-1.5,2.3-1.5,4.1c0,1.9,0.3,4.1,1.5,4.1C137.2,366.2,137.2,364.4,137.4,362z"/>
	<path class="st2" d="M131.4,335.2v-6h15.3v6.7l-9.3,8.2h9.3v6h-15.3v-8.2l8.1-6.7H131.4z"/>
	<path class="st2" d="M130.8,324.7c2,0.5,4.5,1.5,5.5,2.2l0.2,1.3c-1.4-0.5-3.8-1.1-5.5-1.4L130.8,324.7z"/>
	<path class="st2" d="M146.8,316.8h-10.4v7.1h-4.8v-20.1h4.8v7.1h10.4V316.8z"/>
	<path class="st2" d="M141.5,286h5.2v6h-15.3v-6h5.2v-9h-5.2v-6h15.3v6h-5.2V286z"/>
	<path class="st2" d="M131.5,262.4v-7.1l15.3-8.2v6.7l-2.6,1.2v7.7l2.6,1.2v6.7L131.5,262.4z M140.4,260.9v-4.2l-4.5,2.1
		L140.4,260.9z"/>
	<path class="st2" d="M131.5,231.9c0-3.2,2.6-5.8,5.8-5.8c3.2,0,5.8,2.6,5.8,5.8v8.8h3.7v6h-15.3V231.9z M138.5,233.3
		c0-0.4-0.1-0.7-0.4-0.9c-0.3-0.3-0.6-0.4-0.9-0.4c-0.4,0-0.7,0.1-0.9,0.4c-0.3,0.3-0.4,0.6-0.4,0.9v7.3h2.6V233.3z"/>
	<path class="st2" d="M131.5,209.7c0-3.2,2.6-5.8,5.8-5.8c3.2,0,5.8,2.6,5.8,5.8v8.8h3.7v6h-15.3V209.7z M138.5,211.2
		c0-0.4-0.1-0.7-0.4-0.9c-0.3-0.3-0.6-0.4-0.9-0.4c-0.4,0-0.7,0.1-0.9,0.4c-0.3,0.3-0.4,0.6-0.4,0.9v7.3h2.6V211.2z"/>
	<path class="st2" d="M131.5,202.3v-17.9h3.9v11.9h2v-11.9h3.5v11.9h2v-11.9h3.9v17.9H131.5z"/>
	<path class="st2" d="M131.4,166.3v-6h15.3v6.7l-9.3,8.2h9.3v6h-15.3V173l8.1-6.7H131.4z"/>
	<path class="st2" d="M131.5,156.8v-17.9h3.9v11.9h2v-11.9h3.5v11.9h2v-11.9h3.9v17.9H131.5z"/>
	<path class="st2" d="M131.5,122.2c-0.1-4.2,3.5-7.3,7.6-7.3c4.2,0,7.7,3.1,7.6,7.3v13.6h-15.3V122.2z M136.3,123.3v6.5h5.6v-6.5
		c0-1.5-1.3-2.4-2.8-2.4C137.6,120.8,136.3,121.7,136.3,123.3z"/>
	<path class="st2" d="M151.2,113.3l-4.5-1.5v2.6h-4.5v-6h4.5l4.5,2.6V113.3z"/>
	<path class="st2" d="M137,85l-5.5-4.5v-7.1l10.1,8.6h5.2v6h-5.2l-10.1,8.6v-7.1L137,85z"/>
	<path class="st2" d="M131.5,73V55.1h3.9V67h2V55.1h3.5V67h2V55.1h3.9V73H131.5z"/>
	<path class="st2" d="M146.8,46.1h-10.4v7.1h-4.8V33.1h4.8v7.1h10.4V46.1z"/>
	<path class="st2" d="M142.3,26.7h4.5v6h-4.5V26.7z"/>
</g>
</svg>
