<?xml version="1.0" encoding="utf-8"?>
<!-- Generator: Adobe Illustrator 28.0.0, SVG Export Plug-In . SVG Version: 6.00 Build 0)  -->
<svg version="1.1" id="Laag_1" xmlns="http://www.w3.org/2000/svg" xmlns:xlink="http://www.w3.org/1999/xlink" x="0px" y="0px"
	 viewBox="0 0 595.3 841.9" style="enable-background:new 0 0 595.3 841.9;" xml:space="preserve">
<style type="text/css">
	.st0{fill:#141025;}
	.st1{fill:#0F2226;}
	.st2{fill:#FFFFFF;}
	.st3{font-family:'Bauhaus93';}
	.st4{font-size:29.5295px;}
	.st5{fill:none;stroke:#362515;stroke-miterlimit:10;}
	.st6{fill:none;stroke:#D69AA8;stroke-miterlimit:10;}
	.st7{fill:none;stroke:#EAB7BB;stroke-miterlimit:10;}
	.st8{fill:#E6BEBE;}
	.st9{fill:#FFFFFF;stroke:#010202;stroke-width:2;stroke-miterlimit:10;}
	.st10{fill:#9E6645;}
	.st11{fill:#1B1814;}
	.st12{fill:#23180E;}
	.st13{fill:#D3D3C5;stroke:#23180E;stroke-miterlimit:10;}
	.st14{fill:#1C130D;}
	.st15{fill:#7E5940;}
	.st16{fill:none;stroke:#402413;stroke-width:3;stroke-miterlimit:10;}
	.st17{fill:#D69AA8;}
	.st18{fill:none;stroke:#B76A82;stroke-miterlimit:10;}
	.st19{fill:#E5E5DF;stroke:#EAB7BB;stroke-miterlimit:10;}
	.st20{fill:#74788C;}
	.st21{fill:#664F52;}
	.st22{fill:#33262D;}
	.st23{opacity:0.17;fill:#6B5A5B;}
	.st24{fill:none;stroke:#010202;stroke-width:3;stroke-miterlimit:10;}
</style>
<rect x="-0.1" y="0.5" class="st0" width="595.3" height="841.9"/>
<path class="st1" d="M29.4,842.3l1.4-37h31.6l2.4-45.8l28-39.6l-2.3,48.6l35,0.6l-1.8,64.3l25.5,0.2v-27.9c0,0,19.6-0.2,19-0.2
	c-0.6,0-0.8-18,0-18.2c0.8-0.2,22.1-0.2,22.1-0.2v-29.5l28.1-0.8v22.5l6.5,3.8l-1.8,35.8l11.7,8.7v-50.8l22.9,0.8l1.2,35.6
	c0,0,8.5-5.3,9.1-5.9c0.6-0.6,0-47.5,0-47.5l26.1-0.2v27.7c0,0,18.6,2.8,19,1s0-19.6,0-19.6l28,1.8v33.8h36.1V689.1l28.9,1.4
	l1.8,78.7l30.9,0.4v62.7l24.3,0.2v-27.1h19.8l-1-17.4l23.5-1.2v-28.1l26.9,0.6v20.4l7.9,5.1v33.6h6.3v-69.6l25.1,0.4v87h3.4v-26.1
	l6.9,0.8v-52.8l13.1,0.6l0.6,83.6L29.4,842.3z"/>
<path class="st1" d="M577.5,0l-1.4,37h-32.3l-2.5,45.8l-28.6,39.6l2.4-48.6l-35.7-0.6l1.8-64.3l-26-0.2v27.9c0,0-20,0.2-19.4,0.2
	c0.6,0,0.8,18,0,18.2c-0.8,0.2-22.6,0.2-22.6,0.2v29.5l-28.6,0.8V62.9l-6.7-3.8l1.8-35.8l-11.9-8.7v50.8l-23.4-0.8L343.3,29
	c0,0-8.7,5.3-9.3,5.9c-0.6,0.6,0,47.5,0,47.5l-26.6,0.2V55c0,0-19-2.8-19.4-1s0,19.6,0,19.6l-28.6-1.8V37.9h-36.8v115.3l-29.5-1.4
	l-1.8-78.7l-31.5-0.4V10.1l-24.8-0.2V37h-20.2l1,17.4l-24,1.2v28.1L64.5,83V62.7l-8.1-5.1V23.9H50v69.6l-25.6-0.4v-87h-3.4v26.1
	l-7.1-0.8v52.8L0.5,83.6L-0.1,0L577.5,0z"/>
<g>
	<path class="st2" d="M107.8,519.1H55.9v35.2H31.8V454.2h24.1v35.2h51.9V519.1z"/>
	<path class="st2" d="M31.8,444.3v-89h19.5v59.4H61v-59.4h17.6v59.4h9.7v-59.4h19.5v89H31.8z"/>
	<path class="st2" d="M31.7,265.4v-29.7h76v33.4l-46.5,40.9h46.5v29.6h-76v-40.8L72,265.4H31.7z"/>
	<path class="st2" d="M31.8,218.4v-89h19.5v59.4H61v-59.4h17.6v59.4h9.7v-59.4h19.5v89H31.8z"/>
	<path class="st2" d="M107.8,84.9H55.9v35.2H31.8V20h24.1v35.2h51.9V84.9z"/>
</g>
<g>
	<path class="st2" d="M389,693.9h6l6.9,12.9h-5.7l-1-2.2h-6.5l-1,2.2h-5.7L389,693.9z M390.2,701.4h3.6l-1.8-3.8L390.2,701.4z"/>
	<path class="st2" d="M412,693.8h6.3l5,6.5l5.1-6.5h6.3v12.9h-5v-6.9l-5.1,6.9h-2.5l-5.1-6.9v6.9h-5V693.8z"/>
	<path class="st2" d="M454.1,699.8v0.9c0,4.9-4,6.3-8.8,6.3c-4.9,0-8.9-1.4-8.8-6.3v-0.9c0-4.9,4-6.3,8.8-6.3
		C450.2,693.5,454.1,695,454.1,699.8z M449.1,700.2c0-2.1-1.7-2.5-3.8-2.5c-2.1,0-3.8,0.4-3.8,2.5v0.3c0,2.1,1.7,2.5,3.8,2.5
		c2.1,0,3.8-0.4,3.8-2.5V700.2z"/>
	<path class="st2" d="M462.8,702.9l3.9-9h5.7l-6.6,12.9h-6l-6.6-12.9h5.7L462.8,702.9z"/>
	<path class="st2" d="M477.9,693.8v12.9h-5v-12.9H477.9z"/>
	<path class="st2" d="M480.6,693.9h15.1v3.3h-10.1v1.7h10.1v3h-10.1v1.7h10.1v3.3h-15.1V693.9z"/>
	<path class="st2" d="M505.7,693.9h15.8v4.1h-10.7v1.6h9.5v3.8h-9.5v3.5h-5V693.9z"/>
	<path class="st2" d="M535.4,693.9c2.7,0,4.9,2.2,4.9,4.9c0,1-0.3,1.9-0.8,2.6c-0.5,0.8-1.2,1.4-2,1.8l2.8,3.6h-5.4l-2.4-3.2H528
		v3.2h-5v-12.9H535.4z M528,697.6v2.2h6.2c0.3,0,0.6-0.1,0.8-0.3c0.2-0.2,0.3-0.5,0.3-0.8c0-0.6-0.5-1.1-1.1-1.1H528z"/>
	<path class="st2" d="M559.1,699.8v0.9c0,4.9-4,6.3-8.8,6.3c-4.9,0-8.9-1.4-8.8-6.3v-0.9c0-4.9,4-6.3,8.8-6.3
		C555.2,693.5,559.1,695,559.1,699.8z M554.1,700.2c0-2.1-1.7-2.5-3.8-2.5c-2.1,0-3.8,0.4-3.8,2.5v0.3c0,2.1,1.7,2.5,3.8,2.5
		c2.1,0,3.8-0.4,3.8-2.5V700.2z"/>
	<path class="st2" d="M560.6,693.8h6.3l5,6.5l5.1-6.5h6.3v12.9h-5v-6.9l-5.1,6.9h-2.5l-5.1-6.9v6.9h-5V693.8z"/>
</g>
<g>
	<path class="st2" d="M485.5,770.5h6.3v16.2h-7.1l-8.7-9.9v9.9h-6.3v-16.2h8.7l7.1,8.6V770.5z"/>
	<path class="st2" d="M516.1,778v1.2c0,6.1-5,7.9-11,7.9c-6.1,0-11.1-1.8-11.1-7.9V778c0-6.1,5-7.9,11.1-7.9
		C511.2,770.1,516.1,771.9,516.1,778z M509.8,778.4c0-2.6-2.2-3.1-4.7-3.2c-2.6,0-4.8,0.5-4.7,3.2v0.4c0,2.6,2.2,3.1,4.7,3.2
		c2.6,0,4.8-0.5,4.7-3.2V778.4z"/>
	<path class="st2" d="M524.3,770.5v11.1h12.6v5.1H518v-16.2H524.3z"/>
	<path class="st2" d="M546.1,770.5h7.5l8.7,16.2h-7.1l-1.3-2.8h-8.1l-1.3,2.8h-7.1L546.1,770.5z M547.6,780h4.4l-2.2-4.8L547.6,780z
		"/>
	<path class="st2" d="M578.5,770.5h6.3v16.2h-7.1l-8.7-9.9v9.9h-6.3v-16.2h8.7l7.1,8.6V770.5z"/>
</g>
<text transform="matrix(-0.5773 0.8165 -0.8165 -0.5773 332.8368 441.3589)" class="st3 st4">10</text>
<path class="st5" d="M223.3,531.5c0,0-30.5-21-12.4-41s37.4,5.7,37.4,5.7L223.3,531.5z"/>
<path class="st6" d="M345.4,424.7c0,0-20.8-27.7-24.4-28.3l-11.1,16C309.9,412.4,325.5,428.3,345.4,424.7z"/>
<path class="st7" d="M393.7,332.8c0,0,7.5-1.7,16.1-0.6c0.4,0.1,0.9,0.1,1.3,0.2c10.5,1.8,22.3,8.2,23.9,27.4
	C435.1,359.8,399.5,341.7,393.7,332.8z"/>
<path class="st8" d="M449.5,381.1"/>
<g>
	<path class="st9" d="M295.5,433.3L71.3,750.4c29,15.7,62.5,24.7,98.1,24.7c110.6,0,200.2-86.1,200.2-192.4
		C369.6,522.4,340.7,468.6,295.5,433.3z"/>
</g>
<g>
	<path class="st9" d="M399.7,134.1c-107.2,0-194.1,87.5-194.1,195.3c0,56.5,23.9,107.4,62,143.1l220.1-317.2
		C461.3,141.7,431.4,134.1,399.7,134.1z"/>
</g>
<g>
	<path class="st9" d="M399.3,177c-75.5,0-136.7,61.6-136.7,137.5c0,39.8,16.8,75.6,43.6,100.7l155-223.3
		C442.6,182.4,421.6,177,399.3,177z"/>
</g>
<g>
	<path class="st9" d="M290.7,537.6c26.4,70.7-9.8,149.6-80.9,176.2c-37.3,13.9-76.7,10.8-109.6-5.6l158.5-222.9
		C274.2,499.4,282.9,516.7,290.7,537.6z"/>
</g>
<text transform="matrix(-0.5553 0.8317 0.8317 0.5553 288.7126 212.3566)" class="st3 st4">12</text>
<text transform="matrix(-0.5553 0.8317 0.8317 0.5553 248.6931 311.9064)" class="st3 st4">1</text>
<text transform="matrix(-0.5553 0.8317 0.8317 0.5553 273.3259 412.4845)" class="st3 st4">2</text>
<text transform="matrix(-0.5553 0.8317 0.8317 0.5553 382.0681 150.7492)" class="st3 st4">11</text>
<text transform="matrix(-0.5553 0.8317 0.8317 0.5553 471.4763 153.2658)" class="st3 st4">10</text>
<text transform="matrix(-0.5773 0.8165 -0.8165 -0.5773 312.541 654.7494)" class="st3 st4">12</text>
<text transform="matrix(-0.7411 0.6715 -0.6715 -0.7411 211.4995 725.4872)" class="st3 st4">1</text>
<text transform="matrix(-0.7411 0.6715 -0.6715 -0.7411 99.0022 725.4874)" class="st3 st4">2</text>
<text transform="matrix(-0.5773 0.8165 -0.8165 -0.5773 332.8372 569.1682)" class="st3 st4">11</text>
<text transform="matrix(-0.7411 0.6715 -0.6715 -0.7411 305.058 472.4877)" class="st3 st4">10</text>
<path class="st10" d="M96.2,716.3c0,0-128.9-78,57.7-232.9L289.5,439L96.2,716.3z"/>
<path class="st11" d="M100.8,706.4c-41.4-40.7-46.7-60.9-41.6-71.8c5.3-11.2,22.4-13.9,26.3-30.6c2.2-9.7-2.4-13.5-1.9-24.3
	c0.5-9.6-2.4-27.4,15.9-43c-5.3,2.5-54,34.9-65.2,100.1c-11,64.2,30.9,108.7,35.2,113.2C80,735.5,90.4,720.9,100.8,706.4z"/>
<path class="st12" d="M104,566.1c0,0,9.3,33.1,38.1,38.3c0,0-0.2,7.3-6,8.8C130.3,614.7,82.9,591.3,104,566.1z"/>
<path class="st13" d="M157.8,586.6c0,0-37.2,0-35.7-27.6C122.1,559,154.1,563.9,157.8,586.6z"/>
<path class="st14" d="M126.5,574.3c0,0,22.4-16.7,17,10.3C143.5,584.5,132.7,582.1,126.5,574.3z"/>
<path class="st11" d="M225.2,530.3c-14.5-27.8-14.8-36.3-12-38.5c5.3-4.2,23.2,13,34.6,6.2c3-1.8,4.6-4.7,5.3-6.4
	c13.9-20.1,27.9-40.2,41.8-60.3c0,0-97.4-29.1-179.1,89c0,0,73.1-50.2,78.2-33.3c5,16.8-1.9,30.8,22.4,55.3
	C219.3,538.4,222.3,534.4,225.2,530.3z"/>
<path class="st10" d="M120.1,513.8c0,0-28,15.9-24.4,26.5C99.3,551,120.1,513.8,120.1,513.8z"/>
<path class="st15" d="M223.7,532c0,0-30.5-21-12.4-41s37.4,5.7,37.4,5.7L223.7,532z"/>
<path class="st16" d="M211.5,490c1.5,3.5,4.3,8.7,9.2,13.7c5.5,5.6,11.2,8.6,14.8,10.1"/>
<path class="st8" d="M458.7,202.2c33.3,20,40.9,43.3,43,51.3c8.8,34.5-13.1,68.9-33.5,101.1c-7.3,11.5-17.1,24.5-29.6,41.2
	c-8.5,11.4-13,16.9-19.3,23.2c-10.1,10.1-12,9.4-24.3,20.8c-14.9,13.8-15.8,18.3-26.5,25.6c-8.9,6.1-17.3,9.2-22.8,10.9
	c-4.4,0.5-10.9,1.2-18.9,2.6c-17.4,3-22.1,5.4-30.2,5.4c-7.1,0-17.3-1.8-29.8-10.7C288.4,443,416.4,262,458.7,202.2z"/>
<path class="st17" d="M345.4,424.7c0,0-20.8-27.7-24.4-28.3l-11.1,16C309.9,412.4,325.5,428.3,345.4,424.7z"/>
<path class="st18" d="M345.4,424.7c-4.8-1.9-11.3-5-18-10.3c-4.8-3.8-8.4-7.6-11-10.8"/>
<path class="st19" d="M393.7,332.8c0,0,7.5-1.7,16.1-0.6c0.4,0.1,0.9,0.1,1.3,0.2c10.5,1.8,22.3,8.2,23.9,27.4
	C435.1,359.8,399.5,341.7,393.7,332.8z"/>
<path class="st20" d="M411.1,333.1c-3.7,1.2-6.6,5.5-5.7,8.5c0.2,0.6,0.5,1.2,6.4,5c2.8,1.8,4.2,2.7,4.8,2.9
	c5,1.1,10.4-5.9,11.8-7.8c-3.6-4.5-7.5-6.5-9.7-7.4C416.2,333.2,413.8,332.2,411.1,333.1z"/>
<path class="st21" d="M406.8,316.9c0,0,48.5,6.8,51.3,34.7c0,0,28-34.5-44.5-43.5L406.8,316.9z"/>
<path class="st22" d="M458.7,202.2c0,0,26.3,162.3-3.2,182.7c0,0-4.8,9.1,10.4,5.6c15.2-3.5,35.5-24,37.7-30.7
	c2.2-6.7,12.2,22,33.1-2.8c20.8-24.8,19.7-40,25.2-56.5c5.6-16.5,21.2-45.6,6.5-76.9S491,156.4,491,156.4L458.7,202.2z"/>
<path class="st23" d="M330.9,383.3c0,0,52.5,38.5,54.3,51.5c1.8,13,0,15,0,15L372.3,463l-14.3,8.9l-14.2,5l-33.9,5.8
	c0,0-19.1,4.5-30.1-1.4c-11-5.9-13-7.3-13-7.3c1.6-3.1,4.1-7.8,7.7-13.1c3-4.4,3.9-5.2,8.7-11.5c7.3-9.7,11-14.6,14.2-20.1
	c2.5-4.3,6.3-7.8,8.4-12.4c0.4-0.8,1.5-3.5,3.1-3.6c0.7,0,1.3,0.5,1.7,0.8c0,0,2.3,2,8.5,6.1c1.6,1,2.8,1.6,4,2.2
	c7.8,3.7,15.3,4.1,18,3.7c1.4-0.2,2.7-0.8,4.6-0.7c0.3,0,1.1,0.1,1.2-0.2c0.1-0.2-0.2-0.4-0.7-0.9c-0.7-0.8-0.6-1.2-1.1-1.9
	c-0.5-0.7-1.1-1-1.4-1.1c-1.9-1.2-5.2-6.4-8.1-10.4c-1.5-2.1-3.4-4.3-7.1-8.7c-2.6-3.1-0.3-0.2-2.7-2.8c-1.7-1.8-2.9-3.4-4.2-3.1
	c-0.4,0.1-0.5,0.2-0.7,0.1c-0.5-0.5,2.3-4.4,2.9-5.2C325.4,389.1,327.6,386.4,330.9,383.3z"/>
<path class="st8" d="M449,379.9c3.2,0.3,6.2,1.2,7.5,3.5c5.8,10.4-25.5,47.9-49.9,43.9C404.2,426.8,401.5,426.3,449,379.9z"/>
<line class="st24" x1="665.3" y1="-89.6" x2="-3.5" y2="856.3"/>
<g>
	<path class="st2" d="M329.3,739.1c-0.5,6.3-6,8.2-12.8,8.2c-7,0-12.8-2-12.8-9.1v-1.4c0-7.1,5.8-9.1,12.8-9.1
		c6.8,0,12.3,1.9,12.8,8.2h-7.5c-0.7-1.8-2.8-2.3-5.3-2.3c-3,0-5.5,0.6-5.5,3.7v0.5c0,3.1,2.5,3.6,5.5,3.7c2.5,0,4.6-0.4,5.3-2.3
		H329.3z"/>
	<path class="st2" d="M338.8,740.4v6.4h-7.3v-18.7h7.3v6.4h11v-6.4h7.3v18.7h-7.3v-6.4H338.8z"/>
	<path class="st2" d="M379.4,728.1c3.9,0,7.1,3.2,7.1,7.1c0,1.4-0.4,2.7-1.1,3.8c-0.7,1.1-1.7,2-3,2.6l4.1,5.3h-7.8l-3.5-4.6h-6.5
		v4.6h-7.3v-18.7H379.4z M368.6,733.6v3.2h8.9c0.4,0,0.8-0.2,1.1-0.5c0.3-0.3,0.5-0.7,0.5-1.1c0-0.9-0.7-1.6-1.6-1.6H368.6z"/>
	<path class="st2" d="M396,728.1v18.7h-7.3v-18.7H396z"/>
	<path class="st2" d="M410.9,735.3c5.2,0.3,12.6,0.6,12.6,5.3c0,5.4-6.1,6.6-12.7,6.6c-6.6,0-12-0.8-12.7-6.6h7.7
		c0.8,1.5,2.8,1.8,5.1,1.8c2.3,0,5.1-0.4,5.1-1.8c0-0.8-2.3-0.9-5.2-1.1c-5.2-0.3-12.6-0.6-12.6-5.3c0-5.4,6.1-6.6,12.7-6.6
		c6.6,0,12,0.8,12.7,6.6h-7.7c-0.8-1.5-2.8-1.8-5.1-1.8c-2.3,0-5.1,0.3-5.1,1.8C405.7,735.1,407.9,735.2,410.9,735.3z"/>
	<path class="st2" d="M432.4,746.9v-12.8h-8.7v-5.9h24.7v5.9h-8.7v12.8H432.4z"/>
	<path class="st2" d="M474.5,736.8v1.4c0,7.1-5.7,9.1-12.8,9.1c-7.1,0-12.8-2.1-12.8-9.1v-1.4c0-7.1,5.7-9.1,12.8-9.1
		C468.8,727.6,474.5,729.7,474.5,736.8z M467.2,737.2c0-3.1-2.5-3.6-5.5-3.7c-3,0-5.5,0.6-5.5,3.7v0.5c0,3.1,2.5,3.6,5.5,3.7
		c3,0,5.5-0.6,5.5-3.7V737.2z"/>
	<path class="st2" d="M494.8,728.1c3.9,0,7.1,3.2,7.1,7.1c0.1,3.9-3.2,7.1-7.1,7.1H484v4.6h-7.3v-18.7H494.8z M492.9,736.8
		c0.4,0,0.8-0.2,1.1-0.5c0.3-0.3,0.5-0.7,0.5-1.1c0-0.4-0.2-0.8-0.5-1.1c-0.3-0.3-0.7-0.5-1.1-0.5H484v3.2H492.9z"/>
	<path class="st2" d="M511.1,740.4v6.4h-7.3v-18.7h7.3v6.4h11v-6.4h7.3v18.7h-7.3v-6.4H511.1z"/>
	<path class="st2" d="M533.7,728.1h21.9v4.8H541v2.4h14.6v4.3H541v2.4h14.6v4.8h-21.9V728.1z"/>
	<path class="st2" d="M577.6,728.1c3.9,0,7.1,3.2,7.1,7.1c0,1.4-0.4,2.7-1.1,3.8c-0.7,1.1-1.7,2-3,2.6l4.1,5.3h-7.8l-3.5-4.6h-6.5
		v4.6h-7.3v-18.7H577.6z M566.8,733.6v3.2h8.9c0.4,0,0.8-0.2,1.1-0.5c0.3-0.3,0.5-0.7,0.5-1.1c0-0.9-0.7-1.6-1.6-1.6H566.8z"/>
</g>
</svg>
