<?xml version="1.0" encoding="utf-8"?>
<!-- Generator: Adobe Illustrator 28.0.0, SVG Export Plug-In . SVG Version: 6.00 Build 0)  -->
<svg version="1.1" id="Laag_1" xmlns="http://www.w3.org/2000/svg" xmlns:xlink="http://www.w3.org/1999/xlink" x="0px" y="0px"
	 viewBox="0 0 595.3 841.9" style="enable-background:new 0 0 595.3 841.9;" xml:space="preserve">
<style type="text/css">
	.st0{fill:#8D2813;}
	.st1{fill:none;stroke:#000000;stroke-width:5;stroke-miterlimit:10;}
	.st2{fill:none;stroke:#000000;stroke-width:2;stroke-miterlimit:10;}
	.st3{fill:#FFFFFF;stroke:#010202;stroke-miterlimit:10;}
	.st4{fill:none;stroke:#E52421;stroke-width:0.25;stroke-linecap:round;stroke-linejoin:round;stroke-miterlimit:10;}
	.st5{fill:none;stroke:#E52421;stroke-width:0.5;stroke-linecap:round;stroke-linejoin:round;stroke-miterlimit:10;}
	.st6{fill:none;stroke:#010202;stroke-miterlimit:10;}
	.st7{fill:#FFFFFF;stroke:#0C0C0C;stroke-miterlimit:10;}
	.st8{fill:#9A3518;}
	.st9{fill:none;stroke:#78372F;stroke-miterlimit:10;}
	.st10{fill:none;stroke:#FFFFFF;stroke-width:3;stroke-linecap:round;stroke-linejoin:round;stroke-miterlimit:10;}
	.st11{fill:#FFFFFF;}
	.st12{fill:none;stroke:#9A3518;stroke-miterlimit:10;}
	.st13{fill:#C5D42D;}
	.st14{fill:none;stroke:#FFFFFF;stroke-miterlimit:10;}
	.st15{fill:none;stroke:#C5D42D;stroke-width:2;stroke-miterlimit:10;}
	.st16{fill:none;stroke:#090A0A;stroke-miterlimit:10;}
	.st17{fill:#0C0C0C;}
	.st18{fill:#08090A;}
</style>
<ellipse class="st0" cx="-2140.7" cy="423.2" rx="45.9" ry="45.7"/>
<path class="st1" d="M-2186.6,423.2c13.9-1.8,29.8-3,47.3-2.9c16.4,0.1,31.4,1.2,44.6,2.9"/>
<path class="st2" d="M-2186.6,423.2c0.2-2.8,0.8-6.9,2.7-11.4c7.1-16.7,27.2-25.8,44.7-25.6c3.6,0,24.5,0.3,36.8,16.8
	c5.7,7.6,7.2,15.7,7.7,20.2"/>
<path class="st2" d="M-2186.6,423.2c0.2,2.8,0.8,6.9,2.7,11.4c7.1,16.7,27.2,25.8,44.7,25.6c3.6,0,24.5-0.3,36.8-16.8
	c5.7-7.6,7.2-15.7,7.7-20.2"/>
<path d="M-2116.3,436.2c-25.2,5.2-38.9,6.3-41.2,3.1c-0.7-1-0.3-2.5,1.4-4.5c-1.2,0.4-5,1.7-6.5,4.7c-0.3,0.7-1.3,2.6,0,3.9
	c1.2,1.3,3.8,1.4,4.9,1.5c8.2,0.4,37-7.6,40.8-8.7"/>
<ellipse class="st2" cx="-2140.2" cy="423.2" rx="45.9" ry="45.7"/>
<g>
	<path class="st3" d="M-1540.3,427c-5.4-5.5,1.5-18.8,1.8-19.5c2.7-5.1,9.3-14.2,14.4-13.1c-4.1-9.1-13.4-15.4-24.1-15.4
		c-3.5,0-6.9,0.7-10,1.9c3,6.6-3.1,19.5-3.5,20.3c-2.1,4.4-6.5,11.4-10.7,14.6c4.1,9.1,13.4,15.4,24.1,15.4c3.9,0,7.7-0.9,11-2.4
		c-0.2,0-0.4-0.1-0.6-0.2C-1539,428.2-1539.9,427.5-1540.3,427z"/>
	<path class="st3" d="M-1521.8,405.1c0-3.8-0.8-7.5-2.3-10.7c-5.1-1.1-11.7,8-14.4,13.1c-0.4,0.7-7.2,14-1.8,19.5
		c0.5,0.5,1.3,1.2,2.6,1.6c0.2,0.1,0.4,0.1,0.6,0.2C-1528.1,424.7-1521.8,415.6-1521.8,405.1z"/>
	<path class="st3" d="M-1561.6,401.2c0.4-0.8,6.5-13.7,3.5-20.3c-9.7,3.9-16.5,13.2-16.5,24.2c0,3.8,0.8,7.4,2.3,10.7
		C-1568.1,412.6-1563.7,405.6-1561.6,401.2z"/>
</g>
<path class="st4" d="M-1572.6,412c0,0.6,0.1,1.1,0.3,1.4c0.3,0.5,0.6,0.6,0.9,1.2c0.3,0.6,0.2,0.8,0.3,1.3c0.1,0.5,0.5,1.2,1.6,1.8"
	/>
<path class="st4" d="M-1572.1,411.8c0,0.6,0.1,1.1,0.3,1.4c0.3,0.5,0.6,0.6,0.9,1.2c0.3,0.6,0.2,0.8,0.3,1.3
	c0.1,0.5,0.5,1.2,1.6,1.8"/>
<path class="st4" d="M-1571.6,411.2c0,0.6,0.2,1.1,0.4,1.3c0.3,0.5,0.6,0.6,1,1.1c0.3,0.5,0.2,0.8,0.4,1.3c0.2,0.5,0.6,1.1,1.7,1.7"
	/>
<path class="st5" d="M-1570.7,410.6c0.1,0.6,0.3,1,0.5,1.3c0.4,0.5,0.7,0.5,1,1.1c0.3,0.5,0.3,0.8,0.5,1.3c0.2,0.5,0.7,1.1,1.8,1.6"
	/>
<path class="st5" d="M-1570.1,409c0.1,0.6,0.3,1,0.5,1.3c0.4,0.5,0.7,0.5,1,1.1c0.3,0.5,0.3,0.8,0.5,1.3c0.2,0.5,0.7,1.1,1.8,1.6"/>
<path class="st5" d="M-1569.2,407.7c0.1,0.6,0.4,1,0.6,1.3c0.4,0.5,0.7,0.5,1.1,1c0.4,0.5,0.4,0.8,0.6,1.2c0.3,0.4,0.8,1,1.9,1.4"/>
<path class="st5" d="M-1567.9,405.9c0.1,0.6,0.4,1,0.6,1.3c0.4,0.5,0.7,0.5,1.1,1c0.4,0.5,0.4,0.8,0.6,1.2c0.3,0.4,0.8,1,1.9,1.4"/>
<path class="st5" d="M-1567.2,404.4c0.2,0.6,0.5,0.9,0.8,1.1c0.5,0.4,0.8,0.3,1.3,0.8c0.5,0.4,0.5,0.7,0.8,1.1
	c0.3,0.4,0.9,0.9,2.1,1"/>
<path class="st5" d="M-1566.1,402.6c0.3,0.6,0.6,0.9,0.9,1.1c0.5,0.3,0.8,0.3,1.3,0.6c0.5,0.3,0.6,0.6,0.9,1c0.4,0.4,1,0.8,2.2,0.8"
	/>
<path class="st5" d="M-1564.9,400.5c0.3,0.5,0.7,0.8,1,1c0.5,0.3,0.8,0.2,1.4,0.5c0.5,0.3,0.6,0.6,1,0.9c0.4,0.3,1.1,0.7,2.3,0.6"/>
<path class="st5" d="M-1563.6,398.2c0.4,0.5,0.8,0.7,1.1,0.9c0.6,0.2,0.8,0.1,1.4,0.4c0.6,0.3,0.7,0.5,1.1,0.8
	c0.4,0.3,1.1,0.6,2.3,0.4"/>
<path class="st5" d="M-1562.7,396.3c0.5,0.4,0.9,0.6,1.2,0.7c0.6,0.1,0.8,0,1.5,0.1c0.6,0.2,0.7,0.4,1.2,0.6c0.5,0.2,1.2,0.4,2.4,0"
	/>
<path class="st5" d="M-1561,392.1c0.6-0.3,1-0.3,1.4-0.3c0.6,0,0.8,0.3,1.5,0.3c0.6,0,0.8-0.2,1.3-0.3c0.5-0.1,1.3,0,2.3,0.6"/>
<path class="st5" d="M-1561.9,394.7c0.6-0.3,1-0.3,1.4-0.3c0.6,0,0.8,0.3,1.5,0.3c0.6,0,0.8-0.2,1.3-0.3c0.5-0.1,1.3,0,2.3,0.6"/>
<path class="st5" d="M-1560.5,390.3c0.5-0.4,0.9-0.5,1.3-0.6c0.6-0.1,0.8,0.1,1.5,0c0.6-0.1,0.8-0.3,1.3-0.5
	c0.5-0.2,1.2-0.3,2.4,0.2"/>
<path class="st5" d="M-1560.1,388.2c0.5-0.4,0.9-0.5,1.3-0.6c0.6-0.1,0.8,0.1,1.5,0c0.6-0.1,0.8-0.3,1.3-0.5
	c0.5-0.2,1.2-0.3,2.4,0.2"/>
<path class="st5" d="M-1559.8,386.2c0.5-0.4,0.9-0.5,1.3-0.6c0.6-0.1,0.8,0.1,1.5,0c0.6-0.1,0.8-0.3,1.3-0.5
	c0.5-0.2,1.2-0.3,2.4,0.2"/>
<path class="st5" d="M-1559.8,385c0.4-0.4,0.9-0.6,1.2-0.7c0.6-0.2,0.9,0,1.5-0.2c0.6-0.2,0.7-0.4,1.2-0.7c0.5-0.2,1.2-0.4,2.4-0.1"
	/>
<path class="st5" d="M-1559.9,383.7c0.4-0.4,0.9-0.6,1.2-0.7c0.6-0.2,0.9,0,1.5-0.2c0.6-0.2,0.7-0.4,1.2-0.7
	c0.5-0.2,1.2-0.4,2.4-0.1"/>
<path class="st5" d="M-1560.2,382.8c0.4-0.4,0.9-0.6,1.2-0.7c0.6-0.2,0.9,0,1.5-0.2c0.6-0.2,0.7-0.4,1.2-0.7
	c0.5-0.2,1.2-0.4,2.4-0.1"/>
<path class="st5" d="M-1560.4,382c0.4-0.4,0.9-0.6,1.2-0.7c0.6-0.2,0.9,0,1.5-0.2c0.6-0.2,0.7-0.4,1.2-0.7c0.5-0.2,1.2-0.4,2.4-0.1"
	/>
<path class="st5" d="M-1537,426.3c-0.3,0.5-0.7,0.8-1,1c-0.5,0.3-0.8,0.1-1.4,0.4c-0.5,0.3-0.6,0.6-1,0.9c-0.4,0.3-1.1,0.7-2.3,0.5"
	/>
<path class="st5" d="M-1537.3,425.8c-0.3,0.5-0.7,0.8-1,1c-0.5,0.3-0.8,0.1-1.4,0.4c-0.5,0.3-0.6,0.6-1,0.9
	c-0.4,0.3-1.1,0.7-2.3,0.5"/>
<path class="st5" d="M-1537.4,424.9c-0.4,0.5-0.8,0.8-1.1,0.9c-0.6,0.2-0.8,0.1-1.4,0.3c-0.6,0.2-0.7,0.5-1.1,0.8
	c-0.4,0.3-1.1,0.6-2.4,0.4"/>
<path class="st5" d="M-1537.7,423.8c-0.4,0.5-0.8,0.7-1.1,0.8c-0.6,0.2-0.9,0-1.5,0.3c-0.6,0.2-0.7,0.5-1.1,0.8
	c-0.4,0.3-1.2,0.5-2.4,0.2"/>
<path class="st5" d="M-1538.3,422.2c-0.4,0.5-0.8,0.7-1.1,0.8c-0.6,0.2-0.9,0-1.5,0.3c-0.6,0.2-0.7,0.5-1.1,0.8
	c-0.4,0.3-1.2,0.5-2.4,0.2"/>
<path class="st5" d="M-1538.9,420.7c-0.5,0.4-0.9,0.6-1.2,0.7c-0.6,0.1-0.9-0.1-1.5,0.1c-0.6,0.2-0.7,0.4-1.2,0.7
	c-0.5,0.2-1.2,0.4-2.4,0"/>
<path class="st5" d="M-1538.9,419.3c-0.6,0.3-1,0.4-1.4,0.4c-0.6,0-0.8-0.3-1.5-0.3c-0.6,0-0.8,0.2-1.3,0.3
	c-0.5,0.1-1.3,0.1-2.3-0.6"/>
<path class="st5" d="M-1538.2,417.8c-0.6,0.2-1.1,0.2-1.4,0.1c-0.6-0.1-0.8-0.4-1.4-0.5c-0.6-0.1-0.8,0.1-1.4,0.1
	c-0.5,0-1.3-0.2-2.2-1.1"/>
<path class="st5" d="M-1537.5,415.5c-0.6,0.1-1.1,0.1-1.4,0c-0.6-0.2-0.7-0.5-1.3-0.7c-0.6-0.2-0.9,0-1.4-0.1
	c-0.5,0-1.2-0.3-2.1-1.3"/>
<path class="st5" d="M-1536.8,413.8c-0.6,0.1-1.1,0-1.4-0.2c-0.6-0.2-0.7-0.6-1.3-0.8c-0.6-0.2-0.8-0.1-1.3-0.2
	c-0.5-0.1-1.2-0.4-1.9-1.5"/>
<path class="st5" d="M-1535.9,411.2c-0.6,0-1.1-0.1-1.4-0.3c-0.5-0.3-0.6-0.6-1.2-0.9c-0.6-0.3-0.8-0.2-1.3-0.3
	c-0.5-0.1-1.2-0.5-1.8-1.6"/>
<path class="st5" d="M-1534.9,408.4c-0.6-0.1-1-0.3-1.3-0.5c-0.5-0.4-0.5-0.7-1-1.1c-0.5-0.4-0.8-0.3-1.3-0.6
	c-0.5-0.2-1.1-0.7-1.5-2"/>
<path class="st5" d="M-1532.7,404.2c-0.1-0.7-0.4-1.1-0.6-1.3c-0.4-0.5-0.7-0.5-1.1-1c-0.4-0.5-0.4-0.8-0.6-1.3
	c-0.3-0.5-0.8-1.1-1.9-1.5"/>
<path class="st5" d="M-1534.1,406.8c-0.1-0.7-0.4-1.1-0.6-1.3c-0.4-0.5-0.7-0.5-1.1-1c-0.4-0.5-0.4-0.8-0.6-1.3
	c-0.3-0.5-0.8-1.1-1.9-1.5"/>
<path class="st5" d="M-1531.6,402.6c0-0.7-0.2-1.1-0.4-1.4c-0.3-0.6-0.6-0.6-1-1.2c-0.3-0.6-0.2-0.9-0.4-1.4
	c-0.2-0.5-0.6-1.2-1.7-1.8"/>
<path class="st5" d="M-1530.2,400.7c0-0.7-0.2-1.1-0.4-1.4c-0.3-0.6-0.6-0.6-1-1.2c-0.3-0.6-0.2-0.9-0.4-1.4
	c-0.2-0.5-0.6-1.2-1.7-1.8"/>
<path class="st5" d="M-1528.9,399.1c0-0.7-0.2-1.1-0.4-1.4c-0.3-0.6-0.6-0.6-1-1.2c-0.3-0.6-0.2-0.9-0.4-1.4
	c-0.2-0.5-0.6-1.2-1.7-1.8"/>
<path class="st5" d="M-1528,398.4c0-0.7-0.1-1.1-0.2-1.5c-0.3-0.6-0.5-0.7-0.8-1.3c-0.2-0.6-0.1-0.9-0.2-1.4c-0.1-0.5-0.4-1.3-1.5-2
	"/>
<path class="st5" d="M-1526.9,397.5c0-0.7-0.1-1.1-0.2-1.5c-0.3-0.6-0.5-0.7-0.8-1.3c-0.2-0.6-0.1-0.9-0.2-1.4
	c-0.1-0.5-0.4-1.3-1.5-2"/>
<path class="st5" d="M-1525.7,397c0-0.7-0.1-1.1-0.2-1.5c-0.3-0.6-0.5-0.7-0.8-1.3c-0.2-0.6-0.1-0.9-0.2-1.4c-0.1-0.5-0.4-1.3-1.5-2
	"/>
<path class="st5" d="M-1524.5,396.6c0-0.7-0.1-1.1-0.2-1.5c-0.3-0.6-0.5-0.7-0.8-1.3c-0.2-0.6-0.1-0.9-0.2-1.4
	c-0.1-0.5-0.4-1.3-1.5-2"/>
<g>
	<path class="st6" d="M-1524.1,394.4c-4.1-9.1-13.4-15.4-24.1-15.4c-3.5,0-6.9,0.7-10,1.9"/>
	<path class="st6" d="M-1572.3,415.8c4.1,9.1,13.4,15.4,24.1,15.4c3.9,0,7.7-0.9,11-2.4c-0.2,0-0.4-0.1-0.6-0.2"/>
	<path class="st6" d="M-1537.7,428.7c0.2,0.1,0.4,0.1,0.6,0.2c9.1-4.1,15.4-13.2,15.4-23.7c0-3.8-0.8-7.5-2.3-10.7"/>
	<path class="st6" d="M-1558.2,380.9c-9.7,3.9-16.5,13.2-16.5,24.2c0,3.8,0.8,7.4,2.3,10.7"/>
</g>
<ellipse class="st7" cx="330.2" cy="451.5" rx="45.3" ry="46.7"/>
<path class="st8" d="M-879.2,416.5c0.5,3,0.3,7.9-6.3,16.6c-4.9,6.4-16.6,21.9-38.8,26.3c-21.4,4.2-37.8-4.9-43.5-8.1
	c-7.1-3.9-15.3-8.5-16.8-16.8c-1.6-8.5,4.8-16,9.5-21.4c15.3-17.9,36.8-21.2,39.3-21.5c0,0,24.1-3.3,46,11.7
	C-881.5,409.1-879.7,413.5-879.2,416.5z"/>
<path class="st9" d="M-984.9,432.5c6.5-7.3,22.1-23.1,48.9-30c17.4-4.5,29-4.9,38-3.4"/>
<path class="st10" d="M-947.5,404.9c5.3-2.3,12.7-4.8,21.8-6.1c9.1-1.3,16.9-1,22.7-0.3"/>
<line class="st10" x1="-947.9" y1="402.2" x2="-944.5" y2="407.6"/>
<line class="st10" x1="-941.4" y1="399.7" x2="-938.6" y2="404.9"/>
<line class="st10" x1="-935" y1="397.9" x2="-932.2" y2="402.9"/>
<line class="st10" x1="-928.6" y1="396.5" x2="-925.9" y2="401.4"/>
<line class="st10" x1="-922.4" y1="395.3" x2="-919.3" y2="400.4"/>
<line class="st10" x1="-916.1" y1="395.4" x2="-913.4" y2="400"/>
<line class="st10" x1="-910.7" y1="395.6" x2="-908.2" y2="400.4"/>
<path class="st11" d="M-973.6,411.5c1.3,0,2.5,0.2,3.5,0.5c12,4.3,10.6,33,10.6,34.4c3.8,0.7,7.5,1.4,11.3,2.2
	c0.6-6.5,1.2-18.8-2.7-30.5c-2.9-8.9-6.5-11.8-9-13.2c-1.7-0.9-3.2-1.3-4.3-1.5C-967.4,406-970.5,408.8-973.6,411.5z"/>
<path class="st9" d="M-984.6,434.9c4.3,3,27.7,18.7,58.9,12.8c27.4-5.2,41.6-19.7,45.4-24.6"/>
<path class="st11" d="M-897.6,398.8c2.4,3.3,5.8,9,7.7,16.8c2.5,10.6,0.6,19.5-0.6,23.8c2-2.5,3.9-5,5.9-7.4
	c0.7-3.3,1.5-8.5,0.6-14.7c-0.7-5.3-2.4-9.5-3.8-12.3C-891.1,402.9-894.4,400.9-897.6,398.8z"/>
<path class="st12" d="M-879.4,416.1c0.5,3,0.3,7.9-6.3,16.6c-4.9,6.4-16.6,21.9-38.8,26.3c-21.4,4.2-37.8-4.9-43.5-8.1
	c-7.1-3.9-15.3-8.5-16.8-16.8c-1.6-8.5,4.8-16,9.5-21.4c15.3-17.9,36.8-21.2,39.3-21.5c0,0,24.1-3.3,46,11.7
	C-881.7,408.7-879.9,413.1-879.4,416.1z"/>
<line class="st10" x1="-905.4" y1="396.8" x2="-903" y2="400.9"/>
<ellipse class="st13" cx="-276.9" cy="436.1" rx="17.5" ry="17.2"/>
<path class="st14" d="M-282.8,419.8c-0.1,0.4-0.1,1.4,0.1,2.2c0.9,4.2,8.1,3.7,12.6,8.6c2.6,2.8,4.3,7.4,3.2,11.8
	c-1.7,6.4-8.5,8.5-8.8,8.6c-5.7,1.7-12.3-0.8-16.3-6.4"/>
<ellipse class="st15" cx="-276.8" cy="436.1" rx="17.5" ry="17.2"/>
<g>
	<g>
		<path class="st16" d="M375.4,450.4l-1.4,0.8l-8.7-14.9l-1.9-14.9l1.9,0.8c-5.1-6.5-11.9-11.6-19.8-14.5l0.2,1.2l-15.4,2.7
			l-16.2-2.5l0.2-1.3c-7.6,2.9-14.2,7.8-19.3,14.1l1.4-0.2l-0.9,14.5l-9.4,15.1l-1.4-1.8c0,0.7,0,1.3,0,2c0,9.3,2.6,17.9,7.1,25.1
			l0.5-4.4l15.7,4.2l10.5,14.3l-2.9,4.9c4.5,1.6,9.4,2.4,14.4,2.4c6.5,0,12.6-1.4,18.2-3.9l-7.7-2.8l10.9-14.4l15.9-5.6l-1.2,8.2
			c5.8-7.8,9.2-17.6,9.2-28.1C375.5,451.2,375.4,450.8,375.4,450.4z M341.7,460.7h-22.5l-7-21.4l18.2-13.2l18.2,13.2L341.7,460.7z"
			/>
		<g>
			<polygon class="st17" points="312.2,439.2 319.1,460.7 341.7,460.7 348.6,439.2 330.4,426 			"/>
		</g>
		<g>
			<path class="st18" d="M365.3,436.4l8.7,14.9l1.4-0.8c-0.2-10.7-4-20.5-10.1-28.2l-1.9-0.8L365.3,436.4z"/>
		</g>
		<g>
			<path class="st17" d="M351.6,477.1l-10.9,14.4l7.7,2.8c7.1-3.2,13.3-8.3,17.9-14.6l1.2-8.2L351.6,477.1z"/>
		</g>
		<g>
			<path class="st17" d="M330.4,411.5l15.4-2.7l-0.2-1.2c-4.8-1.8-10-2.8-15.5-2.8c-5.5,0-10.8,1-15.7,2.9l-0.2,1.3L330.4,411.5z"/>
		</g>
		<g>
			<path class="st17" d="M295.7,436.2l0.9-14.5l-1.4,0.2c-6.1,7.6-9.9,17.2-10.3,27.6l1.4,1.8L295.7,436.2z"/>
		</g>
		<g>
			<path class="st17" d="M308.1,476.5l-15.7-4.2l-0.5,4.4c5.5,8.9,13.9,15.7,23.8,19.1l2.9-4.9L308.1,476.5z"/>
		</g>
	</g>
</g>
</svg>
